<svg width="83" height="12" viewBox="0 0 83 12" fill="none" xmlns="http://www.w3.org/2000/svg">
<g clip-path="url(#clip0)">
<g opacity="0.6">
<g opacity="0.6">
<g opacity="0.6">
<path opacity="0.6" d="M5 12C7.76142 12 10 9.76142 10 7C10 4.23858 7.76142 2 5 2C2.23858 2 0 4.23858 0 7C0 9.76142 2.23858 12 5 12Z" fill="#37C83C"/>
</g>
</g>
</g>
<g opacity="0.6">
<g opacity="0.6">
<g opacity="0.6">
<path opacity="0.6" d="M8.19995 12C10.9614 12 13.1999 9.76142 13.1999 7C13.1999 4.23858 10.9614 2 8.19995 2C5.43853 2 3.19995 4.23858 3.19995 7C3.19995 9.76142 5.43853 12 8.19995 12Z" fill="#37C83C"/>
</g>
</g>
</g>
<g opacity="0.6">
<g opacity="0.6">
<g opacity="0.6">
<path opacity="0.6" d="M6.59998 10.3999C9.3614 10.3999 11.6 8.16133 11.6 5.3999C11.6 2.63848 9.3614 0.399902 6.59998 0.399902C3.83855 0.399902 1.59998 2.63848 1.59998 5.3999C1.59998 8.16133 3.83855 10.3999 6.59998 10.3999Z" fill="#37C83C"/>
</g>
</g>
</g>
<path d="M23.44 3.31999C24.52 3.31999 25.44 3.67999 26.24 4.43999C27 5.19999 27.4 6.19999 27.4 7.43999C27.4 8.67999 27 9.67999 26.24 10.48C25.48 11.28 24.6 11.64 23.56 11.64C22.52 11.64 21.6 11.2 20.8 10.32V11.52H19.08V0.23999H20.8V4.83999C21.44 3.83999 22.32 3.31999 23.44 3.31999ZM20.76 7.47999C20.76 8.23999 21 8.87999 21.44 9.35999C21.92 9.83999 22.48 10.08 23.16 10.08C23.84 10.08 24.4 9.83999 24.92 9.35999C25.4 8.87999 25.68 8.23999 25.68 7.47999C25.68 6.71999 25.44 6.07999 24.96 5.55999C24.48 5.03999 23.88 4.79999 23.2 4.79999C22.52 4.79999 21.96 5.03999 21.48 5.55999C21 6.07999 20.76 6.71999 20.76 7.47999Z" fill="white"/>
<path d="M33.04 10.9599C32.64 11.4399 32.08 11.6399 31.32 11.6399C30.6 11.6399 30 11.4399 29.56 10.9999C29.12 10.5599 28.88 9.91988 28.88 9.07988V0.879883H30.6V8.83988C30.6 9.63988 30.92 10.0399 31.52 10.0399C31.88 10.0399 32.12 9.91988 32.28 9.67988L33.04 10.9599Z" fill="white"/>
<path d="M37.5999 3.32007C38.7199 3.32007 39.6399 3.64007 40.3599 4.24007C41.0799 4.84007 41.4399 5.64007 41.4799 6.64007V6.68007L35.5999 9.12007C36.1199 9.76007 36.8399 10.0801 37.7599 10.0801C38.6799 10.0801 39.3999 9.72007 39.9999 9.00007L40.9999 10.1201C40.0399 11.1201 38.9199 11.6001 37.5999 11.6001C36.4399 11.6001 35.4799 11.2001 34.6399 10.4801C33.7999 9.72007 33.3999 8.72007 33.3999 7.48007C33.3999 6.60007 33.5999 5.88007 34.0399 5.20007C34.4799 4.56007 34.9999 4.08007 35.6399 3.76007C36.2399 3.48007 36.9199 3.32007 37.5999 3.32007ZM35.0399 7.52007C35.0399 7.64007 35.0399 7.76007 35.0399 7.80007L39.5199 5.88007C39.1599 5.20007 38.5599 4.88007 37.6799 4.88007C36.9999 4.88007 36.3999 5.12007 35.8399 5.56007C35.3199 6.04007 35.0399 6.68007 35.0399 7.52007Z" fill="#37C83C"/>
<path d="M46.5999 3.32007C47.7199 3.32007 48.6399 3.64007 49.3599 4.24007C50.0799 4.84007 50.4399 5.64007 50.4799 6.64007V6.68007L44.5999 9.16007C45.1199 9.80007 45.8399 10.1201 46.7599 10.1201C47.6799 10.1201 48.3999 9.76007 48.9999 9.04007L49.9999 10.1601C49.0399 11.1601 47.9199 11.6401 46.5999 11.6401C45.4399 11.6401 44.4799 11.2401 43.6399 10.5201C42.7999 9.76007 42.3999 8.76007 42.3999 7.52007C42.3999 6.64007 42.5999 5.92007 43.0399 5.24007C43.4799 4.60007 43.9999 4.12007 44.6399 3.80007C45.2399 3.48007 45.9199 3.32007 46.5999 3.32007ZM44.0399 7.52007C44.0399 7.64007 44.0399 7.76007 44.0399 7.80007L48.5199 5.88007C48.1599 5.20007 47.5599 4.88007 46.6799 4.88007C45.9999 4.88007 45.3999 5.12007 44.8399 5.56007C44.3199 6.04007 44.0399 6.68007 44.0399 7.52007Z" fill="#37C83C"/>
<path d="M55.52 11.6401C54.4 11.6401 53.44 11.2401 52.6 10.4801C51.8 9.72007 51.4 8.72007 51.4 7.48007C51.4 6.24007 51.84 5.24007 52.68 4.48007C53.52 3.72007 54.56 3.32007 55.76 3.32007C56.96 3.32007 58 3.76007 58.84 4.60007L57.84 5.84007C57.16 5.24007 56.44 4.92007 55.72 4.92007C55 4.92007 54.4 5.16007 53.88 5.64007C53.36 6.12007 53.08 6.72007 53.08 7.48007C53.08 8.24007 53.32 8.84007 53.84 9.36007C54.36 9.88007 55 10.1201 55.76 10.1201C56.52 10.1201 57.24 9.76007 57.88 9.08007L58.88 10.1601C57.92 11.1601 56.8 11.6401 55.52 11.6401Z" fill="white"/>
<path d="M62.08 11.52H60.36V0.23999H62.08V6.87999L65.36 3.43999H67.56L64.48 6.63999L67.76 11.52H65.68L63.28 7.95999L62.04 9.19999V11.52H62.08Z" fill="white"/>
<path d="M72.56 3.32007C73.68 3.32007 74.6 3.64007 75.32 4.24007C76.04 4.84007 76.4 5.64007 76.44 6.64007V6.68007L70.56 9.16007C71.08 9.80007 71.8 10.1201 72.72 10.1201C73.64 10.1201 74.36 9.76007 74.96 9.04007L75.96 10.1601C75 11.1601 73.88 11.6401 72.56 11.6401C71.4 11.6401 70.44 11.2401 69.6 10.5201C68.76 9.76007 68.36 8.76007 68.36 7.52007C68.36 6.64007 68.56 5.92007 69 5.24007C69.44 4.60007 69.96 4.12007 70.6 3.80007C71.2 3.48007 71.88 3.32007 72.56 3.32007ZM70 7.52007C70 7.64007 70 7.76007 70 7.80007L74.48 5.88007C74.12 5.20007 73.52 4.88007 72.64 4.88007C71.96 4.88007 71.36 5.12007 70.8 5.56007C70.28 6.04007 70 6.68007 70 7.52007Z" fill="white"/>
<path d="M82.12 5.04007C81.28 5.04007 80.64 5.32007 80.2 5.88007C79.76 6.44007 79.56 7.16007 79.56 8.08007V11.5601H77.84V3.44007H79.56V5.08007C79.84 4.56007 80.2 4.16007 80.68 3.84007C81.16 3.52007 81.64 3.36007 82.16 3.32007V5.04007C82.2 5.04007 82.16 5.04007 82.12 5.04007Z" fill="white"/>
</g>
<defs>
<clipPath id="clip0">
<rect width="82.4" height="12" fill="white"/>
</clipPath>
</defs>
</svg>
