<svg width="48" height="48" viewBox="0 0 48 48" fill="none" xmlns="http://www.w3.org/2000/svg">
<g clip-path="url(#clip0)">
<path d="M42.2308 5.48618H38.7093V2.88462C38.7093 2.2473 38.1923 1.73077 37.5554 1.73077C36.9181 1.73077 36.4016 2.2473 36.4016 2.88462V5.48618H11.5984V2.88462C11.5984 2.2473 11.0819 1.73077 10.4446 1.73077C9.80769 1.73077 9.29072 2.2473 9.29072 2.88462V5.48618H5.76923C2.58444 5.48979 0.00360577 8.07062 0 11.2554V40.4401C0.00360577 43.6249 2.58444 46.2057 5.76923 46.2093H42.2308C45.4156 46.2057 47.9964 43.6249 48 40.4401V11.2554C47.9964 8.07062 45.4156 5.48979 42.2308 5.48618ZM45.6923 40.4401C45.6901 42.3507 44.1418 43.8993 42.2308 43.9016H5.76923C3.85817 43.8993 2.30995 42.3507 2.30769 40.4401V11.2554C2.30995 9.34481 3.85817 7.79613 5.76923 7.79387H9.29072V10.9237C9.29072 11.561 9.80769 12.0775 10.4446 12.0775C11.0819 12.0775 11.5984 11.561 11.5984 10.9237V7.79387H36.4016V10.9237C36.4016 11.561 36.9181 12.0775 37.5554 12.0775C38.1928 12.0775 38.7093 11.561 38.7093 10.9237V7.79387H42.2308C44.1418 7.79613 45.6901 9.34481 45.6923 11.2554V40.4401Z" fill="#31ADA5"/>
<path d="M20.5574 16.1268H18.6797C18.0424 16.1268 17.5259 16.6438 17.5259 17.2806C17.5259 17.918 18.0424 18.4345 18.6797 18.4345H20.5574C21.1947 18.4345 21.7113 17.918 21.7113 17.2806C21.7113 16.6438 21.1947 16.1268 20.5574 16.1268Z" fill="#31ADA5"/>
<path d="M29.3203 16.1268H26.8166C26.1792 16.1268 25.6627 16.6438 25.6627 17.2806C25.6627 17.918 26.1792 18.4345 26.8166 18.4345H29.3203C29.9576 18.4345 30.4742 17.918 30.4742 17.2806C30.4742 16.6438 29.9576 16.1268 29.3203 16.1268Z" fill="#31ADA5"/>
<path d="M38.0833 16.1268H35.5795C34.9422 16.1268 34.4257 16.6438 34.4257 17.2806C34.4257 17.918 34.9422 18.4345 35.5795 18.4345H38.0833C38.7206 18.4345 39.2371 17.918 39.2371 17.2806C39.2371 16.6438 38.7206 16.1268 38.0833 16.1268Z" fill="#31ADA5"/>
<path d="M20.5574 25.9457H18.6797C18.0424 25.9457 17.5259 26.4623 17.5259 27.0996C17.5259 27.7369 18.0424 28.2535 18.6797 28.2535H20.5574C21.1947 28.2535 21.7113 27.7369 21.7113 27.0996C21.7113 26.4623 21.1947 25.9457 20.5574 25.9457Z" fill="#31ADA5"/>
<path d="M11.7945 25.9457H9.91679C9.27947 25.9457 8.76294 26.4623 8.76294 27.0996C8.76294 27.7369 9.27947 28.2535 9.91679 28.2535H11.7945C12.4318 28.2535 12.9483 27.7369 12.9483 27.0996C12.9483 26.4623 12.4318 25.9457 11.7945 25.9457Z" fill="#31ADA5"/>
<path d="M29.3203 25.9457H26.8166C26.1792 25.9457 25.6627 26.4623 25.6627 27.0996C25.6627 27.7369 26.1792 28.2535 26.8166 28.2535H29.3203C29.9576 28.2535 30.4742 27.7369 30.4742 27.0996C30.4742 26.4623 29.9576 25.9457 29.3203 25.9457Z" fill="#31ADA5"/>
<path d="M38.0833 25.9457H35.5795C34.9422 25.9457 34.4257 26.4623 34.4257 27.0996C34.4257 27.7369 34.9422 28.2535 35.5795 28.2535H38.0833C38.7206 28.2535 39.2371 27.7369 39.2371 27.0996C39.2371 26.4623 38.7206 25.9457 38.0833 25.9457Z" fill="#31ADA5"/>
<path d="M20.5574 35.1387H18.6797C18.0424 35.1387 17.5259 35.6552 17.5259 36.2925C17.5259 36.9298 18.0424 37.4464 18.6797 37.4464H20.5574C21.1947 37.4464 21.7113 36.9298 21.7113 36.2925C21.7113 35.6552 21.1947 35.1387 20.5574 35.1387Z" fill="#31ADA5"/>
<path d="M11.7945 35.1387H9.91679C9.27947 35.1387 8.76294 35.6552 8.76294 36.2925C8.76294 36.9298 9.27947 37.4464 9.91679 37.4464H11.7945C12.4318 37.4464 12.9483 36.9298 12.9483 36.2925C12.9483 35.6552 12.4318 35.1387 11.7945 35.1387Z" fill="#31ADA5"/>
<path d="M29.3203 35.1387H26.8166C26.1792 35.1387 25.6627 35.6552 25.6627 36.2925C25.6627 36.9298 26.1792 37.4464 26.8166 37.4464H29.3203C29.9576 37.4464 30.4742 36.9298 30.4742 36.2925C30.4742 35.6552 29.9576 35.1387 29.3203 35.1387Z" fill="#31ADA5"/>
</g>
<defs>
<clipPath id="clip0">
<rect width="48" height="48" fill="white"/>
</clipPath>
</defs>
</svg>
