<svg width="48" height="48" viewBox="0 0 48 48" fill="none" xmlns="http://www.w3.org/2000/svg">
<g clip-path="url(#clip0)">
<path d="M30.5699 0.250808C30.3914 0.0894121 30.1596 0 29.919 0H10.562C8.4203 0.00227319 6.6851 1.73785 6.68245 3.87957V37.2704C6.6851 39.4118 8.4203 41.1474 10.562 41.15H17.4024V47.03C17.4024 47.4085 17.6225 47.7525 17.9666 47.9112C18.3102 48.0696 18.7148 48.0131 19.0027 47.7673L24.028 43.4671L29.0529 47.7669C29.3408 48.0131 29.7455 48.0692 30.0891 47.9108C30.4331 47.7525 30.6532 47.4085 30.6532 47.03V41.15H37.4936C39.6353 41.1474 41.3709 39.4118 41.3732 37.2704V10.4536C41.3732 10.1797 41.2573 9.9183 41.0538 9.73455L30.5699 0.250808ZM30.8745 3.1423L37.8467 9.44888H31.8444C31.309 9.44813 30.8752 9.01433 30.8745 8.47899V3.1423ZM24.028 33.7504C20.8569 33.7504 18.2859 31.1798 18.2859 28.0087C18.2859 24.8376 20.8569 22.267 24.028 22.267C27.1991 22.267 29.7697 24.8376 29.7697 28.0087C29.7663 31.1783 27.1976 33.747 24.028 33.7504ZM24.6584 41.4535C24.2955 41.1432 23.7605 41.1432 23.3976 41.4535L19.3422 44.9239V34.0895C22.1015 36.224 25.9545 36.224 28.7138 34.0895V44.9235L24.6584 41.4535ZM37.4936 39.2102H30.6536V31.8883C32.5464 28.6615 31.8394 24.5402 28.979 22.1283C26.1186 19.7169 21.9371 19.7169 19.0766 22.1283C16.2162 24.5402 15.5092 28.6615 17.4024 31.8883V39.2102H10.562C9.49135 39.2091 8.62337 38.3411 8.62224 37.2704V3.87957C8.62337 2.8089 9.49135 1.94092 10.562 1.93979H28.9347V8.47899C28.9366 10.085 30.2384 11.3868 31.8444 11.3887H39.4334V37.2704C39.4323 38.3411 38.5647 39.2091 37.4936 39.2102Z" fill="white"/>
</g>
<defs>
<clipPath id="clip0">
<rect width="48" height="48" fill="white"/>
</clipPath>
</defs>
</svg>
