<svg width="48" height="48" viewBox="0 0 48 48" fill="none" xmlns="http://www.w3.org/2000/svg">
<g clip-path="url(#clip0)">
<path d="M44.4277 20.653C44.328 20.5576 44.21 20.4836 44.0803 20.4365L40.6375 15.1909C39.7156 13.7955 38.1539 12.9566 36.4812 12.9585H31.8151C31.6815 10.3059 29.4932 8.22274 26.8367 8.21924H0.99701C0.446318 8.21924 0 8.66556 0 9.21625V33.715C0 34.2657 0.446318 34.712 0.99701 34.712H4.3292C4.80317 37.603 7.30115 39.7247 10.2306 39.7247C13.1597 39.7247 15.6577 37.603 16.1321 34.712H30.6086C31.0826 37.603 33.5805 39.7251 36.51 39.7251C39.4391 39.7251 41.9375 37.603 42.4115 34.712H47.0032C47.5535 34.712 48.0002 34.2657 48.0002 33.715V26.2164C47.9971 24.8634 47.4471 23.5693 46.4754 22.628L44.4277 20.653ZM38.9726 16.2888L41.6547 20.3738H31.8217V14.9529H36.4812C37.4833 14.951 38.4195 15.453 38.9726 16.2888ZM10.2306 37.7307C8.02865 37.7307 6.24377 35.9458 6.24377 33.7438C6.24377 31.5418 8.02865 29.757 10.2306 29.757C12.4326 29.757 14.2175 31.5418 14.2175 33.7438C14.2152 35.9447 12.4315 37.7284 10.2306 37.7307ZM36.5096 37.7307C34.3076 37.7307 32.5228 35.9458 32.5228 33.7438C32.5228 31.5418 34.3076 29.757 36.5096 29.757C38.7116 29.757 40.4965 31.5418 40.4965 33.7438C40.4942 35.9447 38.7105 37.7284 36.5096 37.7307ZM46.0061 32.718H42.4009C41.9028 29.8539 39.4169 27.7626 36.5096 27.7626C33.6023 27.7626 31.1164 29.8539 30.6187 32.718H16.122C15.6238 29.8539 13.1379 27.7629 10.231 27.7629C7.32374 27.7629 4.83783 29.8539 4.33972 32.718H1.99402V10.2133H26.8367C28.488 10.2152 29.8258 11.5534 29.8277 13.2043V21.3708C29.8277 21.9215 30.274 22.3678 30.8247 22.3678H43.3333L45.0913 24.0635C45.6743 24.6282 46.0042 25.4044 46.0061 26.2164V32.718Z" fill="white"/>
</g>
<defs>
<clipPath id="clip0">
<rect width="48" height="48" fill="white"/>
</clipPath>
</defs>
</svg>
