<svg width="48" height="48" viewBox="0 0 48 48" fill="none" xmlns="http://www.w3.org/2000/svg">
<g clip-path="url(#clip0)">
<path d="M44.3021 30.1533C43.6418 30.1533 43.1067 30.6884 43.1067 31.3487V41.963C43.1043 43.9429 41.5003 45.5475 39.5203 45.5493H5.97724C3.99728 45.5475 2.39323 43.9429 2.3909 41.963V10.8108C2.39323 8.83131 3.99728 7.22679 5.97724 7.22445H16.5915C17.2518 7.22445 17.787 6.6893 17.787 6.02901C17.787 5.36917 17.2518 4.83356 16.5915 4.83356H5.97724C2.67762 4.83729 0.00373578 7.51118 0 10.8108V41.9635C0.00373578 45.2631 2.67762 47.937 5.97724 47.9407H39.5203C42.8199 47.937 45.4938 45.2631 45.4976 41.9635V31.3487C45.4976 30.6884 44.9624 30.1533 44.3021 30.1533Z" fill="#DFE9E8"/>
<path d="M45.0241 1.75763C42.9232 -0.343281 39.5171 -0.343281 37.4162 1.75763L16.0887 23.0852C15.9425 23.2313 15.837 23.4125 15.7819 23.6115L12.9772 33.7368C12.8619 34.152 12.9791 34.5965 13.2836 34.9014C13.5885 35.2059 14.033 35.3231 14.4482 35.2082L24.5735 32.4031C24.7725 32.348 24.9537 32.2425 25.0998 32.0963L46.4269 10.7683C48.5245 8.66601 48.5245 5.26272 46.4269 3.16041L45.0241 1.75763ZM18.6934 23.8622L36.1484 6.4068L41.7777 12.0362L24.3223 29.4916L18.6934 23.8622ZM17.569 26.1186L22.0664 30.6165L15.8454 32.3401L17.569 26.1186ZM44.7365 9.07788L43.4686 10.3457L37.8388 4.7159L39.1071 3.44807C40.2741 2.2811 42.1662 2.2811 43.3332 3.44807L44.7365 4.85085C45.9016 6.01922 45.9016 7.90999 44.7365 9.07788Z" fill="#DFE9E8"/>
</g>
<defs>
<clipPath id="clip0">
<rect width="48" height="48" fill="white"/>
</clipPath>
</defs>
</svg>
