<svg width="48" height="48" viewBox="0 0 48 48" fill="none" xmlns="http://www.w3.org/2000/svg">
<g clip-path="url(#clip0)">
<path d="M42.979 6.6264H5.02105C2.24927 6.62993 0.00313816 8.87607 0 11.6475V36.4114C0.00313816 39.1832 2.24927 41.4293 5.02105 41.4325H42.979C45.7508 41.4293 47.9969 39.1832 48.0001 36.4114V11.6475C47.9969 8.87607 45.7508 6.62954 42.979 6.6264ZM34.0517 24.0228L45.9916 14.6514V35.6131L34.0517 24.0228ZM5.02105 8.63482H42.979C44.6418 8.63678 45.9897 9.98462 45.9916 11.6475V12.0986L26.6696 27.2641C25.2159 28.3989 23.1761 28.397 21.7243 27.2598L2.00842 12.0946V11.6475C2.01038 9.98462 3.35783 8.63678 5.02105 8.63482ZM14.3037 24.0859L2.00842 35.6539V14.6287L14.3037 24.0859ZM42.979 39.424H5.02105C3.97526 39.4236 3.00478 38.8807 2.45639 37.9899L15.9163 25.3271L20.4937 28.8477C22.672 30.5493 25.729 30.5486 27.9064 28.8457L32.4576 25.2749L45.5488 37.9821C45.0016 38.8772 44.0283 39.4233 42.979 39.424Z" fill="#31ADA5"/>
</g>
<defs>
<clipPath id="clip0">
<rect width="48" height="48" fill="white"/>
</clipPath>
</defs>
</svg>
