<svg width="32" height="32" viewBox="0 0 32 32" fill="none" xmlns="http://www.w3.org/2000/svg">
<path d="M14.5188 29.6052C14.9168 30.0033 15.4519 30.2251 16.0131 30.2251C16.5677 30.2251 17.1158 29.9968 17.5073 29.6052L29.2333 17.8793C31.0147 16.0979 31.9935 13.7292 32 11.217C32 8.69821 31.0212 6.32953 29.2398 4.54813C27.4584 2.76672 25.0962 1.78793 22.5775 1.78793C20.1044 1.78793 17.7749 2.7341 16.0065 4.45677C14.2316 2.72757 11.8956 1.77488 9.41599 1.77488C6.90375 1.77488 4.5416 2.75367 2.7602 4.52855C0.978793 6.30996 0 8.67864 0 11.1974C0 13.7096 0.985318 16.0783 2.76672 17.8597L14.5188 29.6052ZM3.8956 5.66395C5.37031 4.18924 7.33442 3.37358 9.42251 3.37358C11.5106 3.37358 13.4812 4.18924 14.9625 5.67048L15.4454 6.15335C15.5954 6.30343 15.7977 6.38826 16.0131 6.38826C16.2219 6.38826 16.4307 6.30343 16.5808 6.15335L17.0506 5.68353C18.5318 4.20229 20.4959 3.38663 22.5905 3.38663C24.6786 3.38663 26.6427 4.20229 28.1175 5.677C29.5987 7.15824 30.4078 9.12236 30.4078 11.2104C30.4078 13.2985 29.5922 15.2627 28.1109 16.7439L16.3785 28.4764C16.1892 28.6656 15.8434 28.6656 15.6476 28.4764L3.90212 16.7308C2.42088 15.2496 1.60522 13.2855 1.60522 11.1974C1.60522 9.10931 2.42088 7.14519 3.8956 5.66395Z" fill="#404040"/>
</svg>
