<svg width="24" height="24" viewBox="0 0 24 24" fill="none" xmlns="http://www.w3.org/2000/svg">
<path d="M20.4853 3.51469C18.2188 1.24823 15.2054 0 12 0C8.79469 0 5.78123 1.24819 3.51473 3.51469C1.24823 5.78123 0 8.79469 0 12C0 15.2053 1.24823 18.2188 3.51473 20.4853C5.78123 22.7518 8.79469 24 12 24C15.2054 24 18.2188 22.7518 20.4853 20.4853C22.7518 18.2188 24 15.2053 24 12C24 8.79469 22.7518 5.78119 20.4853 3.51469ZM12 22.5938C6.15858 22.5938 1.40625 17.8414 1.40625 12C1.40625 6.15858 6.15858 1.40625 12 1.40625C17.8414 1.40625 22.5938 6.15858 22.5938 12C22.5938 17.8414 17.8414 22.5938 12 22.5938Z" fill="#727777"/>
<path d="M12.4973 4.72452C12.3661 4.59374 12.1852 4.51874 12 4.51874C11.8148 4.51874 11.6334 4.59374 11.5027 4.72452C11.3719 4.8553 11.2969 5.03671 11.2969 5.22186C11.2969 5.40702 11.3719 5.58843 11.5027 5.71921C11.6334 5.84999 11.8148 5.92499 12 5.92499C12.1852 5.92499 12.3661 5.84999 12.4973 5.71921C12.6281 5.58796 12.7031 5.40702 12.7031 5.22186C12.7031 5.03671 12.6281 4.8553 12.4973 4.72452Z" fill="#727777"/>
<path d="M12 9.03754C11.6117 9.03754 11.2969 9.35235 11.2969 9.74066V18.7782C11.2969 19.1665 11.6117 19.4813 12 19.4813C12.3883 19.4813 12.7031 19.1665 12.7031 18.7782V9.74066C12.7031 9.35235 12.3883 9.03754 12 9.03754Z" fill="#727777"/>
</svg>
