<svg width="159" height="50" viewBox="0 0 159 50" fill="none" xmlns="http://www.w3.org/2000/svg">
<path fill-rule="evenodd" clip-rule="evenodd" d="M59.4044 34.7962V17.069H64.0125L72.5235 27.9075V17.069H77.1082V34.7962H72.5235L64.0125 23.9577V34.7962H59.4044ZM85.431 17.069V26.7085C85.431 27.2257 85.4506 27.7547 85.4898 28.2954C85.529 28.8362 85.6466 29.326 85.8425 29.7649C86.0384 30.2038 86.348 30.5603 86.7712 30.8346C87.1944 31.1089 87.79 31.2461 88.558 31.2461C89.326 31.2461 89.9177 31.1089 90.3331 30.8346C90.7484 30.5603 91.058 30.2038 91.2618 29.7649C91.4655 29.326 91.587 28.8362 91.6262 28.2954C91.6654 27.7547 91.685 27.2257 91.685 26.7085V17.069H96.2696V27.3433C96.2696 30.1019 95.6387 32.116 94.377 33.3856C93.1152 34.6552 91.1755 35.29 88.558 35.29C85.9404 35.29 83.9969 34.6552 82.7273 33.3856C81.4577 32.116 80.8229 30.1019 80.8229 27.3433V17.069H85.431ZM106.708 20.9718V34.7962H102.1V20.9718H98.315V17.069H110.494V20.9718H106.708ZM117.147 24.9922H118.017C118.926 24.9922 119.624 24.8041 120.11 24.4279C120.596 24.0517 120.839 23.511 120.839 22.8056C120.839 22.1003 120.596 21.5596 120.11 21.1834C119.624 20.8072 118.926 20.6191 118.017 20.6191H117.147V24.9922ZM127.281 34.7962H121.544L117.147 27.978V34.7962H112.539V17.069H119.71C120.697 17.069 121.56 17.2139 122.296 17.5039C123.033 17.7939 123.64 18.1897 124.118 18.6912C124.596 19.1928 124.957 19.7727 125.2 20.431C125.443 21.0893 125.564 21.7947 125.564 22.547C125.564 23.895 125.239 24.9882 124.589 25.8268C123.938 26.6654 122.978 27.2335 121.708 27.5313L127.281 34.7962ZM133.817 17.069V34.7962H129.208V17.069H133.817ZM142.61 25.3448L137.085 17.069H142.774L145.172 21.6536L148.135 17.069H153.824L147.97 25.3448L154.576 34.7962H148.958L145.408 29.0125L141.246 34.7962H135.674L142.61 25.3448Z" fill="#404040"/>
<path fill-rule="evenodd" clip-rule="evenodd" d="M25 50C38.8071 50 50 38.8071 50 25C50 11.1929 38.8071 0 25 0C11.1929 0 0 11.1929 0 25C0 38.8071 11.1929 50 25 50Z" fill="#71CC98"/>
<path opacity="0.717165" fill-rule="evenodd" clip-rule="evenodd" d="M21.3558 26.8025H20.964V35.8151C20.964 38.1662 19.3966 39.7336 16.6536 39.7336C13.9107 39.7336 12.3433 38.1662 12.3433 35.8151V15.4389C12.3433 13.127 13.9107 11.5204 16.6536 11.5204C19.0047 11.5204 20.3762 12.8919 22.1395 15.4389L28.8009 24.4514H29.1928V15.4389C29.1928 13.0878 30.7602 11.5204 33.5031 11.5204C36.2461 11.5204 37.8135 13.0878 37.8135 15.4389V35.8151C37.8135 38.127 36.2461 39.7336 33.5031 39.7336C31.152 39.7336 29.7806 38.3621 28.0172 35.8151L21.3558 26.8025Z" fill="#18A1AA"/>
</svg>
