<svg width="128" height="40" viewBox="0 0 128 40" fill="none" xmlns="http://www.w3.org/2000/svg">
<g clip-path="url(#clip0)">
<path fill-rule="evenodd" clip-rule="evenodd" d="M47.5235 27.8371V13.6553H51.21L58.0188 22.3261V13.6553H61.6865V27.8371H58.0188L51.21 19.1662V27.8371H47.5235ZM68.3448 13.6553V21.3669C68.3448 21.7807 68.3605 22.2039 68.3918 22.6365C68.4232 23.0691 68.5172 23.4609 68.674 23.812C68.8307 24.1631 69.0784 24.4484 69.4169 24.6678C69.7555 24.8872 70.232 24.997 70.8464 24.997C71.4608 24.997 71.9342 24.8872 72.2665 24.6678C72.5987 24.4484 72.8464 24.1631 73.0094 23.812C73.1724 23.4609 73.2696 23.0691 73.3009 22.6365C73.3323 22.2039 73.348 21.7807 73.348 21.3669V13.6553H77.0157V21.8747C77.0157 24.0816 76.511 25.6929 75.5016 26.7086C74.4922 27.7242 72.9404 28.2321 70.8464 28.2321C68.7524 28.2321 67.1975 27.7242 66.1818 26.7086C65.1661 25.6929 64.6583 24.0816 64.6583 21.8747V13.6553H68.3448ZM85.3668 16.7775V27.8371H81.6802V16.7775H78.652V13.6553H88.395V16.7775H85.3668ZM93.7179 19.9938H94.4138C95.1411 19.9938 95.6991 19.8434 96.0878 19.5424C96.4765 19.2415 96.6708 18.8089 96.6708 18.2446C96.6708 17.6803 96.4765 17.2477 96.0878 16.9468C95.6991 16.6459 95.1411 16.4954 94.4138 16.4954H93.7179V19.9938ZM101.824 27.8371H97.2351L93.7179 22.3825V27.8371H90.0313V13.6553H95.768C96.558 13.6553 97.2477 13.7713 97.837 14.0032C98.4263 14.2352 98.9122 14.5518 99.2947 14.9531C99.6771 15.3543 99.9655 15.8183 100.16 16.3449C100.354 16.8716 100.451 17.4358 100.451 18.0377C100.451 19.1161 100.191 19.9907 99.6708 20.6615C99.1505 21.3324 98.3824 21.7869 97.3668 22.0252L101.824 27.8371ZM107.053 13.6553V27.8371H103.367V13.6553H107.053ZM114.088 20.276L109.668 13.6553H114.219L116.138 17.323L118.508 13.6553H123.059L118.376 20.276L123.661 27.8371H119.166L116.326 23.2101L112.997 27.8371H108.539L114.088 20.276Z" fill="white"/>
<path fill-rule="evenodd" clip-rule="evenodd" d="M20 40C31.0456 40 40 31.0456 40 20C40 8.95431 31.0456 0 20 0C8.95431 0 0 8.95431 0 20C0 31.0456 8.95431 40 20 40Z" fill="white"/>
<path fill-rule="evenodd" clip-rule="evenodd" d="M17.0846 21.442H16.7712V28.6521C16.7712 30.5329 15.5172 31.7868 13.3229 31.7868C11.1285 31.7868 9.8746 30.5329 9.8746 28.6521V12.3511C9.8746 10.5016 11.1285 9.21631 13.3229 9.21631C15.2038 9.21631 16.3009 10.3135 17.7116 12.3511L23.0407 19.5611H23.3542V12.3511C23.3542 10.4702 24.6081 9.21631 26.8025 9.21631C28.9969 9.21631 30.2508 10.4702 30.2508 12.3511V28.6521C30.2508 30.5016 28.9969 31.7868 26.8025 31.7868C24.9216 31.7868 23.8244 30.6897 22.4138 28.6521L17.0846 21.442Z" fill="#404040"/>
</g>
<defs>
<clipPath id="clip0">
<rect width="127.022" height="40" fill="white"/>
</clipPath>
</defs>
</svg>
