<svg width="48" height="48" viewBox="0 0 48 48" fill="none" xmlns="http://www.w3.org/2000/svg">
<g clip-path="url(#clip0)">
<path d="M39.8433 8.29366C36.2016 3.02269 30.4302 0 24.0103 0C17.5899 0 11.8189 3.02269 8.17681 8.29366C4.55267 13.5385 3.71491 20.1777 5.93366 26.0454C6.52013 27.6289 7.45592 29.1708 8.70977 30.6229L23.1755 47.6147C23.384 47.8592 23.6888 48 24.0103 48C24.3313 48 24.6361 47.8592 24.8446 47.6147L39.3078 30.6263C40.6169 29.1096 41.5261 27.61 42.0878 26.0428C44.3044 20.1704 43.4658 13.536 39.8433 8.29366ZM40.0338 25.277C40.0317 25.2834 40.0291 25.2898 40.027 25.2962C39.5518 26.6267 38.7954 27.866 37.6464 29.1961L37.6413 29.2021L24.0103 45.2136L10.3737 29.1961C9.2864 27.9375 8.48417 26.6207 7.98631 25.277C6.0197 20.0758 6.765 14.1926 9.97989 9.53938C13.2068 4.86986 18.3202 2.19178 24.0103 2.19178C29.6999 2.19178 34.8138 4.86986 38.0403 9.53938C41.2551 14.1926 42.0009 20.0758 40.0338 25.277Z" fill="#31ADA5"/>
<path d="M24.0103 8.10959C17.8339 8.10959 12.8266 13.1164 12.8266 19.2928C12.8266 25.4692 17.8339 30.4765 24.0103 30.4765C30.1867 30.4765 35.1935 25.4692 35.1935 19.2928C35.1867 13.1194 30.1837 8.11644 24.0103 8.10959ZM24.0103 28.2851C19.0441 28.2851 15.0184 24.2594 15.0184 19.2932C15.0184 14.3275 19.0441 10.3018 24.0103 10.3018C28.976 10.3018 33.0017 14.3275 33.0017 19.2937C32.9962 24.2568 28.9735 28.2791 24.0103 28.2851Z" fill="#31ADA5"/>
</g>
<defs>
<clipPath id="clip0">
<rect width="48" height="48" fill="white"/>
</clipPath>
</defs>
</svg>
