<svg width="48" height="48" viewBox="0 0 48 48" fill="none" xmlns="http://www.w3.org/2000/svg">
<path d="M38.3445 4.13628C38.3418 1.85283 36.4917 0.00272303 34.2082 0H13.796C11.5126 0.00272303 9.66206 1.85283 9.65973 4.13628V43.8637C9.66245 46.1472 11.5126 47.9973 13.796 48H34.2545C35.3667 47.9981 36.431 47.548 37.2074 46.7521C37.9648 45.9791 38.3752 44.9311 38.3445 43.8497V4.13628ZM13.796 1.9917H34.2082C35.3924 1.99326 36.3516 2.95254 36.3528 4.13628V6.75311H11.651V4.13628C11.6526 2.95215 12.6119 1.99287 13.796 1.9917ZM36.3532 8.74481V36.1148H11.651V8.74481H36.3532ZM35.7782 45.3653C35.3795 45.7784 34.8291 46.0106 34.2549 46.0083H13.796C12.6119 46.0067 11.6526 45.0475 11.6514 43.8637V38.1065H36.3528V43.8637V43.8937C36.3699 44.4422 36.1626 44.9735 35.7782 45.3653Z" fill="#31ADA5"/>
<path d="M26.3064 40.7999H21.6979C21.1478 40.7999 20.702 41.2457 20.702 41.7958C20.702 42.3458 21.1478 42.7916 21.6979 42.7916H26.3064C26.8565 42.7916 27.3023 42.3458 27.3023 41.7958C27.3023 41.2457 26.8565 40.7999 26.3064 40.7999Z" fill="#31ADA5"/>
</svg>
