<svg width="16" height="16" viewBox="0 0 16 16" fill="none" xmlns="http://www.w3.org/2000/svg">
<g clip-path="url(#clip0)">
<path d="M7.89805 6.744C9.76036 6.744 11.2701 5.23423 11.2701 3.37192C11.2701 1.50962 9.76036 -5.72205e-06 7.89805 -5.72205e-06C6.03575 -5.72205e-06 4.52612 1.50976 4.52612 3.37206C4.52822 5.23339 6.03673 6.7419 7.89805 6.744ZM7.89805 0.71428C9.36597 0.71428 10.5558 1.90415 10.5558 3.37206C10.5558 4.83984 9.36597 6.02971 7.89805 6.02971C6.43028 6.02971 5.24041 4.83984 5.24041 3.37206C5.24208 1.90485 6.43098 0.715954 7.89805 0.71428Z" fill="#404040"/>
<path d="M7.98612 7.93176C4.5217 7.93037 1.71296 10.7392 1.71436 14.2035V15.6428C1.71436 15.8401 1.87423 16 2.0715 16H13.9007C14.098 16 14.2579 15.8401 14.2579 15.6428V14.2035C14.2594 10.7392 11.4505 7.93037 7.98612 7.93176ZM13.5436 15.2857H2.42864V14.2035C2.42362 12.2147 3.4818 10.3748 5.20334 9.37889C6.92488 8.38307 9.04737 8.38307 10.769 9.37889C12.4906 10.3748 13.5488 12.2147 13.5436 14.2035V15.2857Z" fill="#404040"/>
</g>
<defs>
<clipPath id="clip0">
<rect width="16" height="16" fill="white"/>
</clipPath>
</defs>
</svg>
