<svg width="693" height="300" viewBox="0 0 693 300" fill="none" xmlns="http://www.w3.org/2000/svg">
<g clip-path="url(#clip0)">
<g opacity="0.8">
<path opacity="0.047619" d="M519.447 216.941C519.447 249.726 404.313 276.301 262.235 276.301C120.203 276.301 5.02368 249.726 5.02368 216.941C5.02368 184.155 120.157 157.58 262.235 157.58C404.313 157.534 519.447 184.155 519.447 216.941Z" fill="#F9F9F9"/>
<path opacity="0.0952381" d="M516.387 216.438C516.387 248.585 403.035 274.658 263.24 274.658C123.445 274.658 10.093 248.585 10.093 216.438C10.093 184.292 123.445 158.219 263.24 158.219C403.035 158.219 516.387 184.292 516.387 216.438Z" fill="#F3F3F3"/>
<path opacity="0.1429" d="M513.281 215.982C513.281 247.534 401.756 273.105 264.199 273.105C126.642 273.105 15.1166 247.534 15.1166 215.982C15.1166 184.475 126.642 158.904 264.199 158.904C401.802 158.904 513.281 184.475 513.281 215.982Z" fill="#EEEDED"/>
<path opacity="0.1905" d="M510.221 215.525C510.221 246.438 400.523 271.507 265.204 271.507C129.884 271.507 20.186 246.438 20.186 215.525C20.186 184.612 129.884 159.543 265.204 159.543C400.523 159.589 510.221 184.612 510.221 215.525Z" fill="#E8E7E7"/>
<path opacity="0.2381" d="M507.161 215.069C507.161 245.342 399.29 269.909 266.163 269.909C133.081 269.909 25.164 245.342 25.164 215.069C25.164 184.795 133.036 160.228 266.163 160.228C399.29 160.228 507.161 184.795 507.161 215.069Z" fill="#E2E1E1"/>
<path opacity="0.2857" d="M504.102 214.612C504.102 244.292 398.011 268.311 267.167 268.311C136.324 268.356 30.2333 244.292 30.2333 214.612C30.2333 184.932 136.324 160.913 267.167 160.913C398.011 160.913 504.102 184.977 504.102 214.612Z" fill="#DCDBDB"/>
<path opacity="0.3333" d="M500.996 214.155C500.996 243.196 396.732 266.712 268.126 266.712C139.521 266.712 35.257 243.196 35.257 214.155C35.257 185.114 139.521 161.598 268.126 161.598C396.778 161.598 500.996 185.114 500.996 214.155Z" fill="#D6D5D5"/>
<path opacity="0.381" d="M497.936 213.699C497.936 242.101 395.499 265.16 269.131 265.16C142.763 265.16 40.3263 242.146 40.3263 213.699C40.3263 185.297 142.763 162.237 269.131 162.237C395.499 162.283 497.936 185.297 497.936 213.699Z" fill="#D1CFCF"/>
<path opacity="0.4286" d="M494.876 213.242C494.876 241.05 394.266 263.562 270.136 263.562C146.006 263.562 45.3956 241.05 45.3956 213.242C45.3956 185.48 146.006 162.922 270.136 162.922C394.266 162.922 494.876 185.48 494.876 213.242Z" fill="#CBC9C9"/>
<path opacity="0.4762" d="M491.816 212.785C491.816 239.954 392.987 261.964 271.095 261.964C149.203 261.964 50.3736 239.954 50.3736 212.785C50.3736 185.617 149.203 163.607 271.095 163.607C392.987 163.607 491.816 185.617 491.816 212.785Z" fill="#C5C3C3"/>
<path opacity="0.5238" d="M488.711 212.329C488.711 238.859 391.709 260.365 272.054 260.365C152.4 260.365 55.3973 238.859 55.3973 212.329C55.3973 185.799 152.4 164.292 272.054 164.292C391.754 164.292 488.711 185.799 488.711 212.329Z" fill="#BFBDBE"/>
<path opacity="0.5714" d="M485.651 211.872C485.651 237.763 390.475 258.767 273.059 258.767C155.642 258.767 60.4666 237.763 60.4666 211.872C60.4666 185.982 155.642 164.977 273.059 164.977C390.475 164.977 485.651 185.982 485.651 211.872Z" fill="#B9B7B8"/>
<path opacity="0.619" d="M482.591 211.416C482.591 236.712 389.242 257.215 274.064 257.215C158.885 257.215 65.5359 236.712 65.5359 211.416C65.5359 186.119 158.885 165.662 274.064 165.662C389.242 165.662 482.591 186.119 482.591 211.416Z" fill="#B3B1B2"/>
<path opacity="0.6667" d="M479.531 210.959C479.531 235.616 387.964 255.616 275.023 255.616C162.082 255.616 70.5139 235.616 70.5139 210.959C70.5139 186.301 162.082 166.301 275.023 166.301C387.964 166.301 479.531 186.301 479.531 210.959Z" fill="#AEABAC"/>
<path opacity="0.7143" d="M476.426 210.502C476.426 234.521 386.685 254.018 275.982 254.018C165.278 254.018 75.5376 234.521 75.5376 210.502C75.5376 186.484 165.278 166.986 275.982 166.986C386.73 166.986 476.426 186.484 476.426 210.502Z" fill="#A8A5A6"/>
<path opacity="0.7619" d="M473.366 210.046C473.366 233.47 385.452 252.42 276.986 252.42C168.521 252.42 80.6069 233.47 80.6069 210.046C80.6069 186.667 168.521 167.671 276.986 167.671C385.452 167.671 473.366 186.621 473.366 210.046Z" fill="#A29FA0"/>
<path opacity="0.8095" d="M470.306 209.589C470.306 232.374 384.219 250.822 277.991 250.822C171.764 250.822 85.6763 232.374 85.6763 209.589C85.6763 186.804 171.764 168.356 277.991 168.356C384.219 168.356 470.306 186.804 470.306 209.589Z" fill="#9C999A"/>
<path opacity="0.8571" d="M467.246 209.132C467.246 231.279 382.94 249.269 278.996 249.269C175.006 249.269 90.7456 231.324 90.7456 209.132C90.7456 186.986 175.052 169.041 278.996 169.041C382.94 168.995 467.246 186.986 467.246 209.132Z" fill="#969394"/>
<path opacity="0.9048" d="M464.186 208.676C464.186 230.228 381.707 247.671 279.955 247.671C178.203 247.671 95.7236 230.228 95.7236 208.676C95.7236 187.169 178.203 169.68 279.955 169.68C381.707 169.68 464.186 187.123 464.186 208.676Z" fill="#918D8E"/>
<path opacity="0.9524" d="M461.081 208.219C461.081 229.132 380.428 246.073 280.914 246.073C181.4 246.073 100.747 229.132 100.747 208.219C100.747 187.306 181.4 170.365 280.914 170.365C380.428 170.365 461.081 187.306 461.081 208.219Z" fill="#8B8788"/>
<path opacity="0.8" d="M458.021 207.763C458.021 228.037 379.195 244.475 281.919 244.475C184.642 244.475 105.817 228.037 105.817 207.763C105.817 187.489 184.642 171.05 281.919 171.05C379.195 171.05 458.021 187.489 458.021 207.763Z" fill="#858182"/>
</g>
<g opacity="0.8">
<path opacity="0.047619" d="M908.187 216.941C908.187 249.726 793.51 276.301 652.026 276.301C510.541 276.301 395.865 249.726 395.865 216.941C395.865 184.155 510.541 157.58 652.026 157.58C793.51 157.534 908.187 184.155 908.187 216.941Z" fill="#F9F9F9"/>
<path opacity="0.0952381" d="M903.026 216.438C903.026 248.585 790.633 274.658 651.98 274.658C513.327 274.658 400.934 248.585 400.934 216.438C400.934 184.292 513.327 158.219 651.98 158.219C790.633 158.219 903.026 184.292 903.026 216.438Z" fill="#F3F3F3"/>
<path opacity="0.1429" d="M897.82 215.982C897.82 247.534 787.71 273.105 651.889 273.105C516.067 273.105 406.003 247.534 406.003 215.982C406.003 184.475 516.067 158.904 651.934 158.904C787.71 158.904 897.82 184.475 897.82 215.982Z" fill="#EEEDED"/>
<path opacity="0.1905" d="M892.659 215.525C892.659 246.438 784.833 271.507 651.843 271.507C518.853 271.507 411.027 246.438 411.027 215.525C411.027 184.612 518.853 159.543 651.843 159.543C784.833 159.589 892.659 184.612 892.659 215.525Z" fill="#E8E7E7"/>
<path opacity="0.2381" d="M887.453 215.069C887.453 245.342 781.91 269.909 651.752 269.909C521.593 269.909 416.051 245.342 416.051 215.069C416.051 184.795 521.593 160.228 651.752 160.228C781.91 160.228 887.453 184.795 887.453 215.069Z" fill="#E2E1E1"/>
<path opacity="0.2857" d="M882.246 214.612C882.246 244.292 778.987 268.311 651.66 268.311C524.288 268.311 421.074 244.247 421.074 214.612C421.074 184.932 524.288 160.913 651.66 160.913C779.033 160.913 882.246 184.977 882.246 214.612Z" fill="#DCDBDB"/>
<path opacity="0.3333" d="M877.086 214.155C877.086 243.196 776.11 266.712 651.615 266.712C527.073 266.712 426.143 243.196 426.143 214.155C426.143 185.114 527.073 161.598 651.615 161.598C776.11 161.598 877.086 185.114 877.086 214.155Z" fill="#D6D5D5"/>
<path opacity="0.381" d="M871.879 213.699C871.879 242.101 773.233 265.16 651.523 265.16C529.814 265.16 431.167 242.146 431.167 213.699C431.167 185.297 529.814 162.237 651.523 162.237C773.233 162.283 871.879 185.297 871.879 213.699Z" fill="#D1CFCF"/>
<path opacity="0.4286" d="M866.673 213.242C866.673 241.05 770.31 263.562 651.432 263.562C532.554 263.562 436.191 241.05 436.191 213.242C436.191 185.48 532.554 162.922 651.432 162.922C770.31 162.922 866.673 185.48 866.673 213.242Z" fill="#CBC9C9"/>
<path opacity="0.4762" d="M861.512 212.785C861.512 239.954 767.433 261.964 651.386 261.964C535.34 261.964 441.26 239.954 441.26 212.785C441.26 185.617 535.34 163.607 651.386 163.607C767.433 163.607 861.512 185.617 861.512 212.785Z" fill="#C5C3C3"/>
<path opacity="0.5238" d="M856.306 212.329C856.306 238.859 764.51 260.365 651.295 260.365C538.08 260.365 446.284 238.859 446.284 212.329C446.284 185.799 538.08 164.292 651.295 164.292C764.51 164.292 856.306 185.799 856.306 212.329Z" fill="#BFBDBE"/>
<path opacity="0.5714" d="M851.145 211.872C851.145 237.763 761.633 258.767 651.249 258.767C540.866 258.767 451.353 237.763 451.353 211.872C451.353 185.982 540.866 164.977 651.249 164.977C761.633 164.977 851.145 185.982 851.145 211.872Z" fill="#B9B7B8"/>
<path opacity="0.619" d="M845.939 211.416C845.939 236.712 758.71 257.215 651.158 257.215C543.56 257.215 456.377 236.712 456.377 211.416C456.377 186.119 543.56 165.662 651.158 165.662C758.71 165.662 845.939 186.119 845.939 211.416Z" fill="#B3B1B2"/>
<path opacity="0.6667" d="M840.732 210.959C840.732 235.616 755.787 255.616 651.066 255.616C546.3 255.616 461.4 235.616 461.4 210.959C461.4 186.301 546.3 166.301 651.066 166.301C755.833 166.301 840.732 186.301 840.732 210.959Z" fill="#AEABAC"/>
<path opacity="0.7143" d="M835.572 210.502C835.572 234.521 752.955 254.018 651.021 254.018C549.086 254.018 466.47 234.521 466.47 210.502C466.47 186.484 549.086 166.986 651.021 166.986C752.91 166.986 835.572 186.484 835.572 210.502Z" fill="#A8A5A6"/>
<path opacity="0.7619" d="M830.365 210.046C830.365 233.47 750.033 252.42 650.929 252.42C551.826 252.42 471.493 233.47 471.493 210.046C471.493 186.667 551.826 167.671 650.929 167.671C750.033 167.671 830.365 186.621 830.365 210.046Z" fill="#A29FA0"/>
<path opacity="0.8095" d="M825.159 209.589C825.159 232.374 747.11 250.822 650.838 250.822C554.566 250.822 476.517 232.374 476.517 209.589C476.517 186.804 554.566 168.356 650.838 168.356C747.11 168.356 825.159 186.804 825.159 209.589Z" fill="#9C999A"/>
<path opacity="0.8571" d="M819.999 209.132C819.999 231.279 744.233 249.269 650.792 249.269C557.352 249.269 481.586 231.324 481.586 209.132C481.586 186.986 557.352 169.041 650.792 169.041C744.233 168.995 819.999 186.986 819.999 209.132Z" fill="#969394"/>
<path opacity="0.9048" d="M814.792 208.676C814.792 230.228 741.31 247.671 650.701 247.671C560.047 247.671 486.61 230.228 486.61 208.676C486.61 187.169 560.093 169.68 650.701 169.68C741.31 169.68 814.792 187.123 814.792 208.676Z" fill="#918D8E"/>
<path opacity="0.9524" d="M809.632 208.219C809.632 229.132 738.433 246.073 650.655 246.073C562.833 246.073 491.679 229.132 491.679 208.219C491.679 187.306 562.833 170.365 650.655 170.365C738.433 170.365 809.632 187.306 809.632 208.219Z" fill="#8B8788"/>
<path opacity="0.8" d="M804.425 207.763C804.425 228.037 735.51 244.475 650.564 244.475C565.573 244.475 496.703 228.037 496.703 207.763C496.703 187.489 565.573 171.05 650.564 171.05C735.51 171.05 804.425 187.489 804.425 207.763Z" fill="#858182"/>
</g>
<g opacity="0.33">
<path opacity="0.047619" d="M548.127 256.484C547.716 281.416 466.059 300.274 365.677 298.63C265.295 296.986 184.231 275.434 184.642 250.548C185.053 225.616 266.711 206.758 367.093 208.402C467.429 210 548.492 231.553 548.127 256.484Z" fill="#F9F9F9"/>
<path opacity="0.0952381" d="M547.625 256.849C547.122 281.279 466.515 299.269 367.595 297.078C268.675 294.886 188.89 273.288 189.392 248.858C189.894 224.429 270.501 206.438 369.422 208.63C468.297 210.868 548.081 232.42 547.625 256.849Z" fill="#F3F3F3"/>
<path opacity="0.1429" d="M547.122 257.26C546.483 281.187 466.972 298.31 369.513 295.571C272.054 292.785 193.502 271.187 194.142 247.26C194.781 223.333 274.292 206.21 371.751 208.95C469.21 211.689 547.716 233.333 547.122 257.26Z" fill="#EEEDED"/>
<path opacity="0.1905" d="M546.574 257.626C545.844 281.05 467.383 297.306 371.386 294.018C275.342 290.685 198.115 268.995 198.8 245.571C199.531 222.146 277.991 205.89 373.989 209.178C470.078 212.557 547.305 234.201 546.574 257.626Z" fill="#E8E7E7"/>
<path opacity="0.2381" d="M546.072 258.037C545.204 280.959 467.84 296.393 373.258 292.466C278.676 288.584 202.682 266.849 203.504 243.927C204.372 221.005 281.736 205.571 376.318 209.498C470.945 213.379 546.94 235.114 546.072 258.037Z" fill="#E2E1E1"/>
<path opacity="0.2857" d="M545.57 258.402C544.61 280.822 468.342 295.388 375.176 290.913C282.056 286.438 207.295 264.658 208.254 242.283C209.213 219.863 285.481 205.297 378.647 209.772C471.813 214.201 546.529 235.982 545.57 258.402Z" fill="#DCDBDB"/>
<path opacity="0.3333" d="M545.067 258.813C543.971 280.731 468.799 294.429 377.094 289.406C285.39 284.384 211.953 262.557 213.003 240.639C214.099 218.721 289.271 205.023 380.976 210.046C472.681 215.068 546.118 236.895 545.067 258.813Z" fill="#D6D5D5"/>
<path opacity="0.381" d="M544.565 259.178C543.377 280.594 469.256 293.425 379.012 287.854C288.769 282.283 216.565 260.411 217.753 238.995C218.94 217.58 293.062 204.749 383.305 210.32C473.549 215.89 545.752 237.763 544.565 259.178Z" fill="#D1CFCF"/>
<path opacity="0.4286" d="M544.062 259.589C542.738 280.502 469.712 292.466 380.93 286.347C292.149 280.228 221.224 258.265 222.502 237.352C223.827 216.438 296.853 204.475 385.634 210.594C474.416 216.758 545.341 238.676 544.062 259.589Z" fill="#CBC9C9"/>
<path opacity="0.4762" d="M543.56 259.954C542.144 280.365 470.169 291.461 382.849 284.749C295.437 278.082 225.791 256.119 227.206 235.708C228.622 215.297 300.598 204.201 387.918 210.913C475.284 217.58 544.976 239.543 543.56 259.954Z" fill="#C5C3C3"/>
<path opacity="0.5238" d="M543.012 260.365C541.459 280.274 470.58 290.502 384.675 283.242C298.771 275.982 230.403 253.927 231.91 234.064C233.463 214.155 304.342 203.927 390.247 211.187C476.197 218.402 544.565 240.457 543.012 260.365Z" fill="#BFBDBE"/>
<path opacity="0.5714" d="M542.51 260.731C540.866 280.137 471.037 289.498 386.593 281.69C302.15 273.881 235.016 251.781 236.66 232.374C238.304 212.968 308.133 203.562 392.576 211.416C477.065 219.269 544.154 241.324 542.51 260.731Z" fill="#B9B7B8"/>
<path opacity="0.619" d="M542.007 261.142C540.226 280.046 471.539 288.584 388.512 280.183C305.484 271.781 239.629 249.68 241.41 230.776C243.191 211.872 311.878 203.333 394.905 211.735C477.933 220.091 543.788 242.237 542.007 261.142Z" fill="#B3B1B2"/>
<path opacity="0.6667" d="M541.505 261.507C539.632 279.909 471.996 287.58 390.43 278.63C308.864 269.68 244.287 247.489 246.159 229.087C248.032 210.685 315.669 203.014 397.234 211.963C478.8 220.959 543.377 243.105 541.505 261.507Z" fill="#AEABAC"/>
<path opacity="0.7143" d="M541.003 261.918C538.993 279.817 472.452 286.621 392.348 277.078C312.198 267.58 248.9 245.342 250.863 227.443C252.873 209.543 319.413 202.74 399.518 212.237C479.668 221.781 542.966 244.018 541.003 261.918Z" fill="#A8A5A6"/>
<path opacity="0.7619" d="M540.5 262.283C538.399 279.68 472.909 285.616 394.22 275.525C315.577 265.479 253.512 243.196 255.613 225.799C257.714 208.402 323.204 202.466 401.893 212.557C480.536 222.603 542.601 244.886 540.5 262.283Z" fill="#A29FA0"/>
<path opacity="0.8095" d="M539.952 262.694C537.714 279.589 473.32 284.658 396.093 274.018C318.865 263.379 258.079 241.05 260.317 224.155C262.555 207.26 326.949 202.192 404.176 212.831C481.404 223.47 542.19 245.799 539.952 262.694Z" fill="#9C999A"/>
<path opacity="0.8571" d="M539.45 263.059C537.121 279.452 473.777 283.653 398.011 272.466C322.245 261.279 262.737 238.904 265.067 222.511C267.396 206.119 330.74 201.918 406.505 213.105C482.271 224.292 541.825 246.667 539.45 263.059Z" fill="#969394"/>
<path opacity="0.9048" d="M538.948 263.47C536.481 279.361 474.234 282.694 399.929 270.959C325.625 259.178 267.35 236.758 269.816 220.868C272.282 204.977 334.53 201.644 408.835 213.379C483.139 225.16 541.414 247.58 538.948 263.47Z" fill="#918D8E"/>
<path opacity="0.9524" d="M538.445 263.836C535.888 279.224 474.69 281.69 401.847 269.361C328.958 257.032 271.963 234.566 274.566 219.178C277.123 203.79 338.321 201.279 411.164 213.607C484.053 225.982 541.003 248.448 538.445 263.836Z" fill="#8B8788"/>
<path opacity="0.33" d="M537.943 264.247C535.248 279.132 475.193 280.776 403.72 267.854C332.292 254.977 276.575 232.466 279.27 217.534C281.964 202.648 342.02 201.005 413.447 213.927C484.92 226.849 540.637 249.361 537.943 264.247Z" fill="#858182"/>
</g>
<path d="M693.905 243.699C780.62 243.699 850.917 222.028 850.917 195.297C850.917 168.565 780.62 146.895 693.905 146.895C607.189 146.895 536.892 168.565 536.892 195.297C536.892 222.028 607.189 243.699 693.905 243.699Z" fill="url(#paint0_linear)"/>
<path d="M693.905 239.635C780.62 239.635 850.917 217.964 850.917 191.233C850.917 164.501 780.62 142.831 693.905 142.831C607.189 142.831 536.892 164.501 536.892 191.233C536.892 217.964 607.189 239.635 693.905 239.635Z" fill="url(#paint1_linear)"/>
<path d="M850.917 187.123C850.917 213.836 780.631 235.525 693.905 235.525C607.178 235.525 536.892 213.881 536.892 187.123C536.892 160.411 607.178 138.721 693.905 138.721C780.631 138.767 850.917 160.411 850.917 187.123Z" fill="url(#paint2_linear)"/>
<path d="M850.917 183.059C850.917 209.772 780.631 231.461 693.905 231.461C607.178 231.461 536.892 209.817 536.892 183.059C536.892 156.347 607.178 134.658 693.905 134.658C780.631 134.658 850.917 156.347 850.917 183.059Z" fill="url(#paint3_linear)"/>
<path d="M850.917 178.95C850.917 205.662 780.631 227.352 693.905 227.352C607.178 227.352 536.892 205.708 536.892 178.95C536.892 152.237 607.178 130.548 693.905 130.548C780.631 130.594 850.917 152.237 850.917 178.95Z" fill="url(#paint4_linear)"/>
<path d="M850.917 174.886C850.917 201.598 780.631 223.288 693.905 223.288C607.178 223.288 536.892 201.644 536.892 174.886C536.892 148.174 607.178 126.484 693.905 126.484C780.631 126.484 850.917 148.174 850.917 174.886Z" fill="url(#paint5_linear)"/>
<path d="M850.917 170.776C850.917 197.489 780.631 219.178 693.905 219.178C607.178 219.178 536.892 197.534 536.892 170.776C536.892 144.064 607.178 122.374 693.905 122.374C780.631 122.42 850.917 144.064 850.917 170.776Z" fill="url(#paint6_linear)"/>
<path d="M850.917 166.712C850.917 193.425 780.631 215.114 693.905 215.114C607.178 215.114 536.892 193.47 536.892 166.712C536.892 140 607.178 118.311 693.905 118.311C780.631 118.311 850.917 140 850.917 166.712Z" fill="url(#paint7_linear)"/>
<path d="M850.917 162.603C850.917 189.315 780.631 211.005 693.905 211.005C607.178 211.005 536.892 189.361 536.892 162.603C536.892 135.89 607.178 114.201 693.905 114.201C780.631 114.247 850.917 135.89 850.917 162.603Z" fill="url(#paint8_linear)"/>
<path d="M850.917 158.539C850.917 185.251 780.631 206.941 693.905 206.941C607.178 206.941 536.892 185.297 536.892 158.539C536.892 131.826 607.178 110.137 693.905 110.137C780.631 110.137 850.917 131.826 850.917 158.539Z" fill="url(#paint9_linear)"/>
<path d="M850.917 154.429C850.917 181.142 780.631 202.831 693.905 202.831C607.178 202.831 536.892 181.187 536.892 154.429C536.892 127.717 607.178 106.027 693.905 106.027C780.631 106.073 850.917 127.717 850.917 154.429Z" fill="url(#paint10_linear)"/>
<path d="M850.917 150.365C850.917 177.078 780.631 198.767 693.905 198.767C607.178 198.767 536.892 177.123 536.892 150.365C536.892 123.653 607.178 101.963 693.905 101.963C780.631 101.963 850.917 123.653 850.917 150.365Z" fill="url(#paint11_linear)"/>
<path d="M850.917 146.256C850.917 172.968 780.631 194.658 693.905 194.658C607.178 194.658 536.892 173.014 536.892 146.256C536.892 119.543 607.178 97.8539 693.905 97.8539C780.631 97.8995 850.917 119.543 850.917 146.256Z" fill="url(#paint12_linear)"/>
<path d="M850.917 142.192C850.917 168.904 780.631 190.594 693.905 190.594C607.178 190.594 536.892 168.95 536.892 142.192C536.892 115.479 607.178 93.7899 693.905 93.7899C780.631 93.7899 850.917 115.479 850.917 142.192Z" fill="url(#paint13_linear)"/>
<path d="M850.917 138.082C850.917 164.794 780.631 186.484 693.905 186.484C607.178 186.484 536.892 164.84 536.892 138.082C536.892 111.37 607.178 89.6803 693.905 89.6803C780.631 89.726 850.917 111.37 850.917 138.082Z" fill="url(#paint14_linear)"/>
<path d="M850.917 134.018C850.917 160.731 780.631 182.42 693.905 182.42C607.178 182.42 536.892 160.776 536.892 134.018C536.892 107.306 607.178 85.6621 693.905 85.6621C780.631 85.6164 850.917 107.306 850.917 134.018Z" fill="url(#paint15_linear)"/>
<path d="M850.917 129.909C850.917 156.621 780.631 178.311 693.905 178.311C607.178 178.311 536.892 156.667 536.892 129.909C536.892 103.196 607.178 81.5525 693.905 81.5525C780.631 81.5525 850.917 103.196 850.917 129.909Z" fill="url(#paint16_linear)"/>
<path d="M850.917 125.845C850.917 152.557 780.631 174.247 693.905 174.247C607.178 174.247 536.892 152.603 536.892 125.845C536.892 99.1324 607.178 77.4886 693.905 77.4886C780.631 77.4429 850.917 99.1324 850.917 125.845Z" fill="url(#paint17_linear)"/>
<path d="M850.917 121.735C850.917 148.447 780.631 170.137 693.905 170.137C607.178 170.137 536.892 148.493 536.892 121.735C536.892 95.0228 607.178 73.379 693.905 73.379C780.631 73.379 850.917 95.0228 850.917 121.735Z" fill="url(#paint18_linear)"/>
<path d="M850.917 117.671C850.917 144.384 780.631 166.073 693.905 166.073C607.178 166.073 536.892 144.429 536.892 117.671C536.892 90.9589 607.178 69.3151 693.905 69.3151C780.631 69.2694 850.917 90.9589 850.917 117.671Z" fill="url(#paint19_linear)"/>
<path d="M850.917 113.562C850.917 140.274 780.631 161.963 693.905 161.963C607.178 161.963 536.892 140.32 536.892 113.562C536.892 86.8493 607.178 65.2055 693.905 65.2055C780.631 65.2055 850.917 86.8493 850.917 113.562Z" fill="url(#paint20_linear)"/>
<path d="M850.917 109.498C850.917 136.21 780.631 157.9 693.905 157.9C607.178 157.9 536.892 136.256 536.892 109.498C536.892 82.7854 607.178 61.1416 693.905 61.1416C780.631 61.0959 850.917 82.7854 850.917 109.498Z" fill="url(#paint21_linear)"/>
<path d="M850.917 109.498C850.917 136.21 780.631 157.9 693.905 157.9C607.178 157.9 536.892 136.256 536.892 109.498C536.892 82.7854 607.178 61.1416 693.905 61.1416C780.631 61.0959 850.917 82.7854 850.917 109.498Z" fill="url(#paint22_linear)"/>
<g opacity="0.35">
<path opacity="0.047619" d="M477.659 236.712C485.971 259.589 597.405 249.041 662.849 248.721C721.215 248.402 684.999 195.525 676.687 172.648C668.375 149.772 615.81 147.9 559.271 168.447C502.732 188.995 469.347 213.836 477.659 236.712Z" fill="#FDFDFD"/>
<path opacity="0.0952381" d="M478.527 236.712C486.702 259.132 593.934 249.269 657.552 248.447C714.41 247.626 680.98 196.393 672.851 173.927C664.676 151.461 613.389 149.543 558.22 169.589C503.051 189.68 470.352 214.292 478.527 236.712Z" fill="#FBFAFA"/>
<path opacity="0.1429" d="M479.349 236.758C487.341 258.767 590.372 249.589 652.208 248.265C707.605 246.941 676.961 197.306 668.923 175.297C660.931 153.288 610.832 151.279 557.078 170.822C503.325 190.365 471.356 214.703 479.349 236.758Z" fill="#F9F8F8"/>
<path opacity="0.1905" d="M480.216 236.758C488.072 258.356 586.901 249.817 646.865 247.991C700.755 246.164 672.897 198.174 665.041 176.621C657.186 155.023 608.365 152.968 555.982 172.009C503.645 191.05 472.361 215.16 480.216 236.758Z" fill="#F7F6F6"/>
<path opacity="0.2381" d="M481.084 236.758C488.757 257.9 583.43 250.228 641.567 247.763C693.996 245.525 668.878 199.087 661.159 177.945C653.487 156.804 605.899 154.658 554.932 173.196C503.919 191.689 473.366 215.571 481.084 236.758Z" fill="#F5F3F4"/>
<path opacity="0.2857" d="M481.906 236.758C489.442 257.489 579.913 250.502 636.178 247.489C687.146 244.749 664.767 199.954 657.232 179.224C649.696 158.493 603.387 156.301 553.79 174.338C504.193 192.374 474.371 216.027 481.906 236.758Z" fill="#F3F1F1"/>
<path opacity="0.3333" d="M482.774 236.758C490.172 257.032 576.442 250.776 630.881 247.215C680.386 244.018 660.748 200.822 653.396 180.502C646.043 160.183 600.967 157.945 552.74 175.479C504.513 193.059 475.375 216.484 482.774 236.758Z" fill="#F1EFEF"/>
<path opacity="0.381" d="M483.642 236.758C490.857 256.621 572.971 251.05 625.583 246.986C673.582 243.288 656.775 201.689 649.514 181.826C642.298 161.963 598.455 159.635 551.644 176.667C504.787 193.744 476.38 216.895 483.642 236.758Z" fill="#EFECED"/>
<path opacity="0.4286" d="M484.464 236.804C491.542 256.256 569.409 251.324 620.194 246.758C666.731 242.557 652.665 202.603 645.586 183.196C638.507 163.744 595.943 161.37 550.502 177.9C505.106 194.429 477.385 217.352 484.464 236.804Z" fill="#EDEAEA"/>
<path opacity="0.4762" d="M485.331 236.804C492.227 255.799 565.938 251.598 614.896 246.53C659.972 241.827 648.646 203.516 641.75 184.521C634.854 165.525 593.523 163.059 549.451 179.087C505.38 195.069 478.39 217.763 485.331 236.804Z" fill="#EBE8E8"/>
<path opacity="0.5238" d="M486.199 236.804C492.958 255.388 562.467 251.872 609.598 246.256C653.213 241.05 644.627 204.384 637.868 185.799C631.109 167.215 591.057 164.703 548.401 180.228C505.7 195.753 479.44 218.219 486.199 236.804Z" fill="#E9E5E6"/>
<path opacity="0.5714" d="M487.021 236.804C493.643 254.977 558.951 252.146 604.209 246.027C646.317 240.32 640.517 205.297 633.94 187.123C627.364 168.95 588.545 166.438 547.259 181.416C505.974 196.438 480.445 218.63 487.021 236.804Z" fill="#E7E3E4"/>
<path opacity="0.619" d="M487.889 236.804C494.328 254.521 555.48 252.374 598.912 245.753C639.558 239.543 636.543 206.119 630.058 188.402C623.619 170.685 586.033 168.082 546.163 182.557C506.294 197.123 481.449 219.087 487.889 236.804Z" fill="#E5E1E1"/>
<path opacity="0.6667" d="M488.757 236.804C495.059 254.11 552.009 252.648 593.614 245.479C632.799 238.767 632.525 206.986 626.222 189.726C619.92 172.42 583.612 169.772 545.113 183.744C506.568 197.763 482.454 219.498 488.757 236.804Z" fill="#E3DEDF"/>
<path opacity="0.7143" d="M489.579 236.849C495.698 253.699 548.492 252.922 588.225 245.297C625.902 238.082 628.414 207.945 622.295 191.096C616.175 174.247 581.101 171.507 543.971 184.977C506.887 198.447 483.459 219.954 489.579 236.849Z" fill="#E1DCDD"/>
<path opacity="0.7619" d="M490.446 236.849C496.429 253.288 544.976 253.151 582.927 245.023C619.143 237.26 624.395 208.813 618.413 192.374C612.43 175.936 578.634 173.151 542.875 186.164C507.161 199.132 484.464 220.411 490.446 236.849Z" fill="#DFDADA"/>
<path opacity="0.8095" d="M491.268 236.849C497.114 252.877 541.459 253.379 577.584 244.795C612.339 236.53 620.331 209.726 614.531 193.699C608.731 177.671 576.123 174.84 541.825 187.352C507.435 199.817 485.468 220.822 491.268 236.849Z" fill="#DDD7D8"/>
<path opacity="0.8571" d="M492.136 236.849C497.799 252.42 537.988 253.607 572.241 244.521C605.488 235.708 616.312 210.594 610.649 194.977C604.986 179.406 573.656 176.484 540.729 188.493C507.755 200.502 486.473 221.279 492.136 236.849Z" fill="#DBD5D6"/>
<path opacity="0.9048" d="M493.004 236.849C498.53 252.009 534.518 253.836 566.943 244.247C598.729 234.886 612.293 211.416 606.767 196.301C601.287 181.142 571.19 178.174 539.633 189.68C508.029 201.142 487.478 221.69 493.004 236.849Z" fill="#D9D3D4"/>
<path opacity="0.9524" d="M493.826 236.849C499.169 251.553 530.955 253.973 561.6 244.018C591.879 234.064 608.229 212.329 602.885 197.626C597.542 182.922 568.724 179.863 538.537 190.868C508.349 201.826 488.483 222.146 493.826 236.849Z" fill="#D7D0D1"/>
<path opacity="0.35" d="M494.694 236.895C499.9 251.187 527.439 254.292 556.256 243.79C585.028 233.333 604.164 213.242 598.957 198.95C593.751 184.658 566.212 181.553 537.395 192.055C508.623 202.511 489.487 222.557 494.694 236.895Z" fill="#D5CECF"/>
</g>
<path opacity="0.8" d="M816.619 142.648L816.756 142.557C820.82 140.365 820.866 137.58 816.847 136.347L605.945 71.5069C601.926 70.274 595.395 71.0502 591.331 73.242L591.194 73.3333C587.129 75.5251 587.083 78.3105 591.102 79.5434L802.005 144.384C806.023 145.662 812.554 144.886 816.619 142.648Z" fill="url(#paint23_linear)"/>
<path d="M397.189 195.297C397.189 222.009 326.858 243.699 240.131 243.699C153.404 243.699 83.1188 222.009 83.1188 195.297C83.1188 168.584 153.404 146.895 240.131 146.895C326.858 146.895 397.189 168.584 397.189 195.297Z" fill="url(#paint24_linear)"/>
<path d="M397.189 191.233C397.189 217.945 326.858 239.635 240.131 239.635C153.404 239.635 83.1188 217.945 83.1188 191.233C83.1188 164.52 153.404 142.831 240.131 142.831C326.858 142.831 397.189 164.52 397.189 191.233Z" fill="url(#paint25_linear)"/>
<path d="M397.189 187.123C397.189 213.836 326.858 235.525 240.131 235.525C153.404 235.525 83.1188 213.836 83.1188 187.123C83.1188 160.411 153.404 138.721 240.131 138.721C326.858 138.721 397.189 160.411 397.189 187.123Z" fill="url(#paint26_linear)"/>
<path d="M397.189 183.059C397.189 209.772 326.858 231.461 240.131 231.461C153.404 231.461 83.1188 209.772 83.1188 183.059C83.1188 156.347 153.404 134.658 240.131 134.658C326.858 134.658 397.189 156.347 397.189 183.059Z" fill="url(#paint27_linear)"/>
<path d="M397.189 178.95C397.189 205.662 326.858 227.352 240.131 227.352C153.404 227.352 83.1188 205.662 83.1188 178.95C83.1188 152.237 153.404 130.548 240.131 130.548C326.858 130.548 397.189 152.237 397.189 178.95Z" fill="url(#paint28_linear)"/>
<path d="M397.189 174.886C397.189 201.598 326.858 223.288 240.131 223.288C153.404 223.288 83.1188 201.598 83.1188 174.886C83.1188 148.174 153.404 126.484 240.131 126.484C326.858 126.484 397.189 148.174 397.189 174.886Z" fill="url(#paint29_linear)"/>
<path d="M397.189 170.776C397.189 197.489 326.858 219.178 240.131 219.178C153.404 219.178 83.1188 197.489 83.1188 170.776C83.1188 144.064 153.404 122.374 240.131 122.374C326.858 122.374 397.189 144.064 397.189 170.776Z" fill="url(#paint30_linear)"/>
<path d="M397.189 166.712C397.189 193.425 326.858 215.114 240.131 215.114C153.404 215.114 83.1188 193.425 83.1188 166.712C83.1188 140 153.404 118.31 240.131 118.31C326.858 118.31 397.189 140 397.189 166.712Z" fill="url(#paint31_linear)"/>
<path d="M397.189 162.603C397.189 189.315 326.858 211.005 240.131 211.005C153.404 211.005 83.1188 189.315 83.1188 162.603C83.1188 135.89 153.404 114.201 240.131 114.201C326.858 114.201 397.189 135.89 397.189 162.603Z" fill="url(#paint32_linear)"/>
<path d="M397.189 158.539C397.189 185.251 326.858 206.941 240.131 206.941C153.404 206.941 83.1188 185.251 83.1188 158.539C83.1188 131.826 153.404 110.137 240.131 110.137C326.858 110.137 397.189 131.826 397.189 158.539Z" fill="url(#paint33_linear)"/>
<path d="M397.189 154.429C397.189 181.142 326.858 202.831 240.131 202.831C153.404 202.831 83.1188 181.142 83.1188 154.429C83.1188 127.717 153.404 106.027 240.131 106.027C326.858 106.027 397.189 127.717 397.189 154.429Z" fill="url(#paint34_linear)"/>
<path d="M397.189 150.365C397.189 177.078 326.858 198.767 240.131 198.767C153.404 198.767 83.1188 177.078 83.1188 150.365C83.1188 123.653 153.404 101.963 240.131 101.963C326.858 101.963 397.189 123.653 397.189 150.365Z" fill="url(#paint35_linear)"/>
<path d="M397.189 146.256C397.189 172.968 326.858 194.658 240.131 194.658C153.404 194.658 83.1188 173.014 83.1188 146.256C83.1188 119.543 153.404 97.8539 240.131 97.8539C326.858 97.8539 397.189 119.543 397.189 146.256Z" fill="url(#paint36_linear)"/>
<path d="M397.189 142.192C397.189 168.904 326.858 190.594 240.131 190.594C153.404 190.594 83.1188 168.904 83.1188 142.192C83.1188 115.479 153.404 93.7899 240.131 93.7899C326.858 93.7899 397.189 115.479 397.189 142.192Z" fill="url(#paint37_linear)"/>
<path d="M397.189 138.082C397.189 164.795 326.858 186.484 240.131 186.484C153.404 186.484 83.1188 164.84 83.1188 138.082C83.1188 111.37 153.404 89.6804 240.131 89.6804C326.858 89.6804 397.189 111.37 397.189 138.082Z" fill="url(#paint38_linear)"/>
<path d="M397.189 134.018C397.189 160.731 326.858 182.42 240.131 182.42C153.404 182.42 83.1188 160.731 83.1188 134.018C83.1188 107.306 153.45 85.6164 240.177 85.6164C326.903 85.6164 397.189 107.306 397.189 134.018Z" fill="url(#paint39_linear)"/>
<path d="M397.189 129.909C397.189 156.621 326.858 178.311 240.131 178.311C153.404 178.311 83.1188 156.667 83.1188 129.909C83.1188 103.196 153.45 81.5525 240.177 81.5525C326.903 81.5525 397.189 103.196 397.189 129.909Z" fill="url(#paint40_linear)"/>
<path d="M397.189 125.845C397.189 152.557 326.858 174.247 240.131 174.247C153.404 174.247 83.1188 152.557 83.1188 125.845C83.1188 99.1324 153.404 77.4886 240.131 77.4886C326.858 77.4886 397.189 99.1324 397.189 125.845Z" fill="url(#paint41_linear)"/>
<path d="M397.189 121.735C397.189 148.448 326.858 170.137 240.131 170.137C153.404 170.137 83.1188 148.493 83.1188 121.735C83.1188 95.0228 153.404 73.379 240.131 73.379C326.858 73.379 397.189 95.0228 397.189 121.735Z" fill="url(#paint42_linear)"/>
<path d="M397.189 117.671C397.189 144.384 326.858 166.073 240.131 166.073C153.404 166.073 83.1188 144.384 83.1188 117.671C83.1188 90.9589 153.404 69.3151 240.131 69.3151C326.858 69.3151 397.189 90.9589 397.189 117.671Z" fill="url(#paint43_linear)"/>
<path d="M397.189 113.562C397.189 140.274 326.858 161.963 240.131 161.963C153.404 161.963 83.1188 140.32 83.1188 113.562C83.1188 86.8493 153.404 65.2055 240.131 65.2055C326.858 65.2055 397.189 86.8493 397.189 113.562Z" fill="url(#paint44_linear)"/>
<path d="M397.189 109.498C397.189 136.21 326.858 157.9 240.131 157.9C153.404 157.9 83.1188 136.21 83.1188 109.498C83.1188 82.7854 153.404 61.1415 240.131 61.1415C326.858 61.1415 397.189 82.7854 397.189 109.498Z" fill="url(#paint45_linear)"/>
<g opacity="0.35">
<path opacity="0.047619" d="M440.073 207.443C429.432 238.128 306.124 235.114 233.326 241.05C168.43 246.256 211.953 173.653 222.594 142.968C233.281 112.283 291.875 104.749 353.483 126.164C415.091 147.534 450.759 176.758 440.073 207.443Z" fill="#FDFDFD"/>
<path opacity="0.0952381" d="M439.114 207.534C428.655 237.671 310.006 235.114 239.263 240.183C176.056 244.612 216.383 174.384 226.841 144.292C237.299 114.155 294.524 106.667 354.625 127.58C414.726 148.447 449.572 177.397 439.114 207.534Z" fill="#FBFAFA"/>
<path opacity="0.1429" d="M438.2 207.626C427.925 237.169 313.887 235.114 245.246 239.361C183.729 242.968 220.858 175.16 231.134 145.616C241.41 116.073 297.218 108.63 355.812 128.995C414.361 149.315 448.43 178.082 438.2 207.626Z" fill="#F9F8F8"/>
<path opacity="0.1905" d="M437.241 207.717C427.194 236.667 317.769 235.251 251.183 238.539C191.356 241.461 225.288 175.982 235.381 146.986C245.429 118.037 299.867 110.594 356.954 130.457C413.995 150.228 447.288 178.721 437.241 207.717Z" fill="#F7F6F6"/>
<path opacity="0.2381" d="M436.282 207.808C426.417 236.21 321.606 235.297 257.12 237.671C198.937 239.817 229.718 176.712 239.583 148.31C249.448 119.909 302.516 112.557 358.05 131.872C413.63 151.142 446.147 179.406 436.282 207.808Z" fill="#F5F3F4"/>
<path opacity="0.2857" d="M435.323 207.9C425.641 235.708 325.488 235.342 263.011 236.849C206.518 238.219 234.103 177.489 243.785 149.68C253.467 121.872 305.119 114.521 359.192 133.333C413.265 152.055 445.005 180.091 435.323 207.9Z" fill="#F3F1F1"/>
<path opacity="0.3333" d="M434.364 207.991C424.91 235.251 329.369 235.342 268.949 235.982C214.099 236.575 238.533 178.219 248.032 150.959C257.485 123.699 307.768 116.438 360.333 134.703C412.899 152.968 443.863 180.731 434.364 207.991Z" fill="#F1EFEF"/>
<path opacity="0.381" d="M433.451 208.082C424.18 234.749 333.251 235.388 274.931 235.16C221.772 234.977 243.054 178.995 252.279 152.329C261.55 125.662 310.417 118.402 361.475 136.164C412.534 153.881 442.722 181.416 433.451 208.082Z" fill="#EFECED"/>
<path opacity="0.4286" d="M432.492 208.174C423.449 234.247 337.133 235.388 280.868 234.338C229.399 233.333 247.484 179.772 256.526 153.699C265.615 127.626 313.111 120.411 362.617 137.626C412.169 154.795 441.534 182.1 432.492 208.174Z" fill="#EDEAEA"/>
<path opacity="0.4762" d="M431.532 208.265C422.673 233.79 340.97 235.434 286.805 233.47C236.98 231.689 251.914 180.502 260.774 155.023C269.634 129.498 315.76 122.329 363.759 139.041C411.803 155.708 440.392 182.74 431.532 208.265Z" fill="#EBE8E8"/>
<path opacity="0.5238" d="M430.573 208.356C421.896 233.288 344.806 235.434 292.742 232.648C244.607 230.091 256.344 181.324 264.975 156.393C273.653 131.461 318.363 124.338 364.855 140.502C411.392 156.621 439.251 183.425 430.573 208.356Z" fill="#E9E5E6"/>
<path opacity="0.5714" d="M429.66 208.447C421.211 232.785 348.733 235.434 298.725 231.826C252.233 228.447 260.819 182.1 269.268 157.717C277.717 133.379 321.058 126.301 366.042 141.918C411.027 157.534 438.109 184.11 429.66 208.447Z" fill="#E7E3E4"/>
<path opacity="0.619" d="M428.701 208.539C420.435 232.329 352.57 235.434 304.662 230.959C259.86 226.758 265.249 182.831 273.516 159.041C281.782 135.251 323.706 128.219 367.23 143.333C410.661 158.447 436.967 184.749 428.701 208.539Z" fill="#E5E1E1"/>
<path opacity="0.6667" d="M427.742 208.63C419.704 231.826 356.452 235.434 310.599 230.137C267.441 225.16 269.679 183.607 277.763 160.411C285.846 137.215 326.401 130.228 368.371 144.795C410.296 159.361 435.825 185.434 427.742 208.63Z" fill="#E3DEDF"/>
<path opacity="0.7143" d="M426.783 208.721C418.928 231.37 360.288 235.434 316.536 229.269C275.068 223.47 274.109 184.338 281.964 161.735C289.82 139.087 329.004 132.146 369.467 146.21C409.931 160.274 434.684 186.073 426.783 208.721Z" fill="#E1DCDD"/>
<path opacity="0.7619" d="M425.87 208.813C418.197 230.868 364.215 235.388 322.519 228.448C282.695 221.826 278.585 185.114 286.257 163.059C293.93 141.005 331.699 134.11 370.655 147.626C409.565 161.187 433.496 186.758 425.87 208.813Z" fill="#DFDADA"/>
<path opacity="0.8095" d="M424.91 208.904C417.466 230.365 368.052 235.388 328.456 227.626C290.322 220.137 283.015 185.936 290.505 164.429C297.949 142.968 334.348 136.073 371.797 149.087C409.2 162.1 432.355 187.443 424.91 208.904Z" fill="#DDD7D8"/>
<path opacity="0.8571" d="M423.951 208.995C416.69 229.909 371.934 235.342 334.347 226.758C297.903 218.447 287.399 186.667 294.661 165.753C301.922 144.84 336.951 138.037 372.847 150.502C408.835 163.014 431.213 188.082 423.951 208.995Z" fill="#DBD5D6"/>
<path opacity="0.9048" d="M422.992 209.087C415.913 229.406 375.815 235.297 340.284 225.936C305.53 216.804 291.875 187.443 298.953 167.123C306.032 146.804 339.645 140 374.08 151.963C408.469 163.927 430.071 188.767 422.992 209.087Z" fill="#D9D3D4"/>
<path opacity="0.9524" d="M422.033 209.178C415.183 228.95 379.697 235.206 346.222 225.069C313.111 215.023 296.305 188.174 303.155 168.402C310.006 148.63 342.248 141.918 375.176 153.333C408.104 164.795 428.929 189.452 422.033 209.178Z" fill="#D7D0D1"/>
<path opacity="0.35" d="M421.12 209.269C414.452 228.447 383.625 235.16 352.204 224.247C320.829 213.333 300.78 188.95 307.448 169.772C314.116 150.594 344.943 143.881 376.364 154.795C407.693 165.708 427.788 190.091 421.12 209.269Z" fill="#D5CECF"/>
</g>
<path opacity="0.52" d="M331.836 117.169L331.973 117.078C335.489 113.927 334.804 111.233 330.466 111.05L101.752 100.137C97.4134 99.9087 91.0196 102.283 87.5031 105.434L87.3661 105.525C83.8495 108.676 84.5346 111.37 88.8732 111.552L317.587 122.466C321.971 122.648 328.365 120.274 331.836 117.169Z" fill="url(#paint46_linear)"/>
<path opacity="0.8" d="M345.811 117.169L345.948 117.078C349.464 113.927 348.779 111.233 344.44 111.05L115.727 100.137C111.388 99.9087 104.995 102.283 101.478 105.434L101.387 105.479C97.8701 108.63 98.5551 111.324 102.894 111.507L331.607 122.42C335.946 122.648 342.294 120.274 345.811 117.169Z" fill="url(#paint47_linear)"/>
<path d="M542.966 262.329C521.684 294.292 445.918 281.233 373.715 233.196C301.511 185.16 260.226 120.32 281.462 88.3561C302.744 56.3927 378.51 69.452 450.714 117.489C522.918 165.525 564.249 230.365 542.966 262.329Z" fill="url(#paint48_linear)"/>
<path d="M545.25 258.904C524.014 290.822 448.293 277.717 376.09 229.68C303.886 181.644 262.555 116.849 283.791 84.9315C305.028 53.0137 380.748 66.1187 452.997 114.155C525.155 162.192 566.486 227.032 545.25 258.904Z" fill="url(#paint49_linear)"/>
<path d="M547.488 255.525C526.297 287.397 450.577 274.247 378.373 226.21C306.169 178.173 264.793 113.425 285.983 81.5525C307.174 49.6804 382.894 62.831 455.098 110.868C527.347 158.904 568.724 223.653 547.488 255.525Z" fill="url(#paint50_linear)"/>
<path d="M549.771 252.101C528.626 283.881 452.906 270.731 380.702 222.694C308.498 174.658 267.122 109.954 288.267 78.1735C309.458 46.3927 385.132 59.5434 457.336 107.58C529.54 155.571 570.916 220.32 549.771 252.101Z" fill="url(#paint51_linear)"/>
<path d="M552.055 248.721C530.91 280.457 455.235 267.26 383.077 219.224C310.828 171.187 269.405 106.53 290.55 74.7489C311.695 43.0137 387.324 56.21 459.574 104.247C531.732 152.283 573.154 216.986 552.055 248.721Z" fill="url(#paint52_linear)"/>
<path d="M554.292 245.297C533.193 276.986 457.564 263.744 385.36 215.708C313.157 167.717 271.734 103.059 292.834 71.3699C313.933 39.6804 389.562 52.9224 461.766 100.959C533.969 148.95 575.392 213.607 554.292 245.297Z" fill="url(#paint53_linear)"/>
<path d="M556.576 241.918C535.522 273.562 459.893 260.274 387.69 212.237C315.486 164.201 274.018 99.5891 295.072 67.9452C316.125 36.3014 391.754 49.589 463.958 97.6256C536.162 145.662 577.63 210.274 556.576 241.918Z" fill="url(#paint54_linear)"/>
<path d="M558.814 238.493C537.76 270.091 462.177 256.758 389.973 208.721C317.815 160.731 276.301 96.1644 297.355 64.5662C318.409 32.968 393.946 46.3014 466.196 94.3379C538.354 142.329 579.867 206.895 558.814 238.493Z" fill="url(#paint55_linear)"/>
<path d="M561.097 235.114C540.089 266.667 464.552 253.288 392.348 205.251C320.099 157.215 278.63 92.694 299.593 61.1415C320.601 29.589 396.138 42.968 468.342 91.0046C540.592 139.041 582.105 203.562 561.097 235.114Z" fill="url(#paint56_linear)"/>
<path d="M563.335 231.689C542.373 263.196 466.835 249.772 394.631 201.735C322.428 153.744 280.914 89.2694 301.876 57.7625C322.839 26.2557 398.376 39.6803 470.58 87.7169C542.784 135.708 584.297 200.183 563.335 231.689Z" fill="url(#paint57_linear)"/>
<path d="M565.619 228.311C544.702 259.772 469.164 246.301 396.961 198.265C324.757 150.228 283.197 85.7991 304.114 54.3379C325.031 22.8767 400.568 36.347 472.772 84.3836C544.976 132.42 586.535 196.849 565.619 228.311Z" fill="url(#paint58_linear)"/>
<path d="M567.902 224.886C546.985 256.301 471.539 242.785 399.335 194.749C327.132 146.712 285.527 82.3288 306.443 50.9133C327.36 19.4977 402.806 33.0137 475.01 81.0502C547.168 129.087 588.773 193.516 567.902 224.886Z" fill="url(#paint59_linear)"/>
<path d="M570.14 221.507C549.269 252.877 473.823 239.315 401.619 191.279C329.415 143.242 287.81 78.9041 308.681 47.5343C329.552 16.1644 404.998 29.6804 477.202 77.7626C549.406 125.799 591.011 190.137 570.14 221.507Z" fill="url(#paint60_linear)"/>
<path d="M572.423 218.082C551.598 249.406 476.152 235.799 403.948 187.808C331.744 139.772 290.094 75.4338 310.919 44.1552C331.744 12.831 407.191 26.3927 479.394 74.4749C551.598 122.466 593.249 186.804 572.423 218.082Z" fill="url(#paint61_linear)"/>
<path d="M574.661 214.703C553.836 245.982 478.435 232.374 406.277 184.338C334.073 136.301 292.377 72.0091 313.202 40.7763C334.028 9.49772 409.383 23.105 481.586 71.1872C553.79 119.178 595.487 183.425 574.661 214.703Z" fill="url(#paint62_linear)"/>
<path d="M576.945 211.279C556.165 242.466 480.81 228.858 408.606 180.822C336.403 132.785 294.706 68.5388 315.44 37.3516C336.22 6.16438 411.575 19.7717 483.779 67.8082C555.982 115.845 597.724 180.091 576.945 211.279Z" fill="url(#paint63_linear)"/>
<path d="M579.228 207.9C558.494 239.041 483.139 225.388 410.935 177.352C338.732 129.315 296.99 65.1141 317.724 33.9726C338.458 2.83103 413.813 16.484 486.016 64.5205C558.22 112.511 599.916 176.758 579.228 207.9Z" fill="url(#paint64_linear)"/>
<path d="M581.466 204.475C560.778 235.571 485.423 221.872 413.265 173.836C341.015 125.799 299.273 61.6438 319.961 30.548C340.695 -0.593596 416.005 13.1507 488.208 61.1872C560.412 109.224 602.154 173.379 581.466 204.475Z" fill="url(#paint65_linear)"/>
<path d="M583.749 201.096C563.061 232.146 487.798 218.402 415.594 170.365C343.344 122.283 301.557 58.1735 322.245 27.1233C342.933 -3.92695 418.197 9.81734 490.401 57.8539C562.604 105.89 604.392 170.046 583.749 201.096Z" fill="url(#paint66_linear)"/>
<path d="M585.987 197.671C565.345 228.676 490.081 214.886 417.877 166.849C345.674 118.813 303.886 54.7488 324.529 23.7443C345.171 -7.26028 420.435 6.52967 492.638 54.5662C564.842 102.603 606.63 166.667 585.987 197.671Z" fill="url(#paint67_linear)"/>
<path d="M588.271 194.292C567.674 225.251 492.41 211.416 420.206 163.379C348.003 115.342 306.169 51.2785 326.766 20.3196C347.363 -10.6393 422.581 3.19635 494.785 51.2329C567.034 99.2694 608.868 163.333 588.271 194.292Z" fill="url(#paint68_linear)"/>
<path d="M590.508 190.868C569.911 221.781 494.739 207.9 422.536 159.863C350.332 111.826 308.453 47.8082 329.05 16.9406C349.601 -13.9726 424.819 -0.091326 497.023 47.9452C569.226 95.9817 611.105 159.954 590.508 190.868Z" fill="url(#paint69_linear)"/>
<path d="M590.509 190.868C569.912 221.781 494.739 207.9 422.536 159.863C350.332 111.826 308.453 47.8082 329.05 16.9406C349.601 -13.9726 424.819 -0.091326 497.023 47.9452C569.226 95.9817 611.106 159.954 590.509 190.868Z" fill="url(#paint70_linear)"/>
<path opacity="0.68" d="M534.289 204.566L534.381 204.475C537.349 202.374 537.669 197.808 535.157 194.292L402.35 7.80823C399.838 4.24659 395.408 3.10504 392.439 5.20549L392.348 5.29682C389.425 7.39727 389.06 11.9635 391.572 15.4795L524.425 201.918C526.936 205.479 531.366 206.667 534.289 204.566Z" fill="url(#paint71_linear)"/>
</g>
<defs>
<linearGradient id="paint0_linear" x1="536.869" y1="195.302" x2="850.936" y2="195.302" gradientUnits="userSpaceOnUse">
<stop stop-color="#D5D3D4"/>
<stop offset="0.2113" stop-color="#E1DEDF"/>
<stop offset="0.4329" stop-color="#E8E4E6"/>
<stop offset="0.734" stop-color="#E0DDDF"/>
<stop offset="1" stop-color="#D5D3D4"/>
</linearGradient>
<linearGradient id="paint1_linear" x1="539.983" y1="193.778" x2="854.828" y2="188.537" gradientUnits="userSpaceOnUse">
<stop stop-color="#D7D5D6"/>
<stop offset="0.0216247" stop-color="#D9D7D8"/>
<stop offset="0.1456" stop-color="#E0DDDE"/>
<stop offset="0.4329" stop-color="#E8E4E6"/>
<stop offset="0.567" stop-color="#E6E2E4"/>
<stop offset="1" stop-color="#D5D3D4"/>
</linearGradient>
<linearGradient id="paint2_linear" x1="543.174" y1="192.148" x2="858.631" y2="181.643" gradientUnits="userSpaceOnUse">
<stop stop-color="#D9D7D8"/>
<stop offset="0.0112691" stop-color="#DAD8D9"/>
<stop offset="0.1456" stop-color="#E1DEDF"/>
<stop offset="0.4329" stop-color="#E9E5E7"/>
<stop offset="0.567" stop-color="#E6E2E4"/>
<stop offset="1" stop-color="#D5D3D4"/>
</linearGradient>
<linearGradient id="paint3_linear" x1="546.439" y1="190.412" x2="862.339" y2="174.624" gradientUnits="userSpaceOnUse">
<stop stop-color="#DBD9DA"/>
<stop offset="0.0112691" stop-color="#DCDADB"/>
<stop offset="0.1456" stop-color="#E3E0E1"/>
<stop offset="0.4329" stop-color="#E9E5E7"/>
<stop offset="0.567" stop-color="#E6E2E4"/>
<stop offset="1" stop-color="#D4D2D3"/>
</linearGradient>
<linearGradient id="paint4_linear" x1="549.771" y1="188.566" x2="865.946" y2="167.484" gradientUnits="userSpaceOnUse">
<stop stop-color="#DDDBDC"/>
<stop offset="0.1456" stop-color="#E4E2E3"/>
<stop offset="0.4329" stop-color="#E9E6E8"/>
<stop offset="0.567" stop-color="#E6E2E4"/>
<stop offset="1" stop-color="#D4D2D3"/>
</linearGradient>
<linearGradient id="paint5_linear" x1="553.165" y1="186.609" x2="869.446" y2="160.225" gradientUnits="userSpaceOnUse">
<stop stop-color="#DFDDDE"/>
<stop offset="0.1456" stop-color="#E6E4E4"/>
<stop offset="0.4329" stop-color="#EAE6E8"/>
<stop offset="0.567" stop-color="#E6E2E4"/>
<stop offset="1" stop-color="#D4D2D3"/>
</linearGradient>
<linearGradient id="paint6_linear" x1="556.618" y1="184.539" x2="872.833" y2="152.852" gradientUnits="userSpaceOnUse">
<stop stop-color="#E1E0E0"/>
<stop offset="0.1456" stop-color="#E7E5E6"/>
<stop offset="0.4329" stop-color="#EAE7E8"/>
<stop offset="0.567" stop-color="#E7E3E5"/>
<stop offset="1" stop-color="#D4D2D3"/>
</linearGradient>
<linearGradient id="paint7_linear" x1="560.122" y1="182.355" x2="876.102" y2="145.37" gradientUnits="userSpaceOnUse">
<stop stop-color="#E3E2E2"/>
<stop offset="0.1456" stop-color="#E9E7E8"/>
<stop offset="0.4329" stop-color="#EAE7E9"/>
<stop offset="0.567" stop-color="#E7E3E5"/>
<stop offset="1" stop-color="#D4D1D3"/>
</linearGradient>
<linearGradient id="paint8_linear" x1="563.674" y1="180.054" x2="879.248" y2="137.781" gradientUnits="userSpaceOnUse">
<stop stop-color="#E5E4E4"/>
<stop offset="0.1456" stop-color="#EBE9E9"/>
<stop offset="0.4329" stop-color="#EBE7E9"/>
<stop offset="0.567" stop-color="#E7E3E5"/>
<stop offset="1" stop-color="#D3D1D2"/>
</linearGradient>
<linearGradient id="paint9_linear" x1="567.268" y1="177.637" x2="882.265" y2="130.091" gradientUnits="userSpaceOnUse">
<stop stop-color="#E7E6E6"/>
<stop offset="0.1456" stop-color="#ECEAEB"/>
<stop offset="0.4329" stop-color="#EBE8E9"/>
<stop offset="0.567" stop-color="#E7E3E5"/>
<stop offset="1" stop-color="#D3D1D2"/>
</linearGradient>
<linearGradient id="paint10_linear" x1="570.898" y1="175.102" x2="885.148" y2="122.305" gradientUnits="userSpaceOnUse">
<stop stop-color="#E9E8E8"/>
<stop offset="0.1456" stop-color="#EEECED"/>
<stop offset="0.4329" stop-color="#EBE8EA"/>
<stop offset="0.567" stop-color="#E7E3E5"/>
<stop offset="1" stop-color="#D3D1D2"/>
</linearGradient>
<linearGradient id="paint11_linear" x1="574.559" y1="172.449" x2="887.893" y2="114.428" gradientUnits="userSpaceOnUse">
<stop stop-color="#EBEAEB"/>
<stop offset="0.1456" stop-color="#EFEEEE"/>
<stop offset="0.4329" stop-color="#ECE9EA"/>
<stop offset="0.567" stop-color="#E7E3E5"/>
<stop offset="1" stop-color="#D3D0D2"/>
</linearGradient>
<linearGradient id="paint12_linear" x1="578.246" y1="169.678" x2="890.494" y2="106.465" gradientUnits="userSpaceOnUse">
<stop stop-color="#EDECED"/>
<stop offset="0.1456" stop-color="#F1F0F0"/>
<stop offset="0.4329" stop-color="#ECE9EB"/>
<stop offset="0.567" stop-color="#E7E3E5"/>
<stop offset="1" stop-color="#D3D0D2"/>
</linearGradient>
<linearGradient id="paint13_linear" x1="581.953" y1="166.787" x2="892.948" y2="98.4207" gradientUnits="userSpaceOnUse">
<stop stop-color="#EFEEEF"/>
<stop offset="0.1456" stop-color="#F2F1F2"/>
<stop offset="0.4329" stop-color="#ECEAEB"/>
<stop offset="0.567" stop-color="#E7E3E5"/>
<stop offset="1" stop-color="#D3D0D2"/>
</linearGradient>
<linearGradient id="paint14_linear" x1="585.676" y1="163.778" x2="895.249" y2="90.3017" gradientUnits="userSpaceOnUse">
<stop stop-color="#F1F0F1"/>
<stop offset="0.1456" stop-color="#F4F3F3"/>
<stop offset="0.4329" stop-color="#EDEAEB"/>
<stop offset="0.567" stop-color="#E7E3E5"/>
<stop offset="1" stop-color="#D2D0D1"/>
</linearGradient>
<linearGradient id="paint15_linear" x1="589.409" y1="160.65" x2="897.394" y2="82.1137" gradientUnits="userSpaceOnUse">
<stop stop-color="#F3F2F3"/>
<stop offset="0.1456" stop-color="#F6F5F5"/>
<stop offset="0.4329" stop-color="#EDEAEC"/>
<stop offset="0.567" stop-color="#E7E3E5"/>
<stop offset="1" stop-color="#D2CFD1"/>
</linearGradient>
<linearGradient id="paint16_linear" x1="593.146" y1="157.405" x2="899.38" y2="73.8625" gradientUnits="userSpaceOnUse">
<stop stop-color="#F5F5F5"/>
<stop offset="0.1456" stop-color="#F7F6F7"/>
<stop offset="0.4329" stop-color="#EDEBEC"/>
<stop offset="0.567" stop-color="#E8E4E6"/>
<stop offset="1" stop-color="#D2CFD1"/>
</linearGradient>
<linearGradient id="paint17_linear" x1="596.884" y1="154.042" x2="901.202" y2="65.5545" gradientUnits="userSpaceOnUse">
<stop stop-color="#F7F7F7"/>
<stop offset="0.1456" stop-color="#F9F8F8"/>
<stop offset="0.4329" stop-color="#EEEBEC"/>
<stop offset="0.567" stop-color="#E8E4E6"/>
<stop offset="1" stop-color="#D2CFD1"/>
</linearGradient>
<linearGradient id="paint18_linear" x1="600.615" y1="150.563" x2="902.858" y2="57.196" gradientUnits="userSpaceOnUse">
<stop stop-color="#F9F9F9"/>
<stop offset="0.1456" stop-color="#FAFAFA"/>
<stop offset="0.4329" stop-color="#EEECED"/>
<stop offset="0.5636" stop-color="#E8E4E6"/>
<stop offset="0.567" stop-color="#E8E4E6"/>
<stop offset="1" stop-color="#D2CFD1"/>
</linearGradient>
<linearGradient id="paint19_linear" x1="604.336" y1="146.969" x2="904.343" y2="48.7935" gradientUnits="userSpaceOnUse">
<stop stop-color="#FBFBFB"/>
<stop offset="0.1456" stop-color="#FCFCFC"/>
<stop offset="0.4329" stop-color="#EEECED"/>
<stop offset="0.5636" stop-color="#E8E4E6"/>
<stop offset="0.567" stop-color="#E8E4E6"/>
<stop offset="1" stop-color="#D1CED0"/>
</linearGradient>
<linearGradient id="paint20_linear" x1="608.042" y1="143.261" x2="905.657" y2="40.3536" gradientUnits="userSpaceOnUse">
<stop stop-color="#FDFDFD"/>
<stop offset="0.1456" stop-color="#FDFDFD"/>
<stop offset="0.4329" stop-color="#EFEDEE"/>
<stop offset="0.5533" stop-color="#E9E5E7"/>
<stop offset="0.567" stop-color="#E8E4E6"/>
<stop offset="1" stop-color="#D1CED0"/>
</linearGradient>
<linearGradient id="paint21_linear" x1="611.727" y1="139.441" x2="906.795" y2="31.8832" gradientUnits="userSpaceOnUse">
<stop offset="0.1456" stop-color="white"/>
<stop offset="0.567" stop-color="#E8E4E6"/>
<stop offset="1" stop-color="#D1CED0"/>
</linearGradient>
<linearGradient id="paint22_linear" x1="611.727" y1="139.441" x2="906.795" y2="31.8832" gradientUnits="userSpaceOnUse">
<stop offset="0.2146" stop-color="#E8E4E6"/>
<stop offset="0.7126" stop-color="white"/>
</linearGradient>
<linearGradient id="paint23_linear" x1="696.539" y1="111.995" x2="700.08" y2="100.479" gradientUnits="userSpaceOnUse">
<stop stop-color="#C0BFC0"/>
<stop offset="0.2351" stop-color="#D6D5D5"/>
<stop offset="0.4752" stop-color="#E5E5E3"/>
<stop offset="0.6668" stop-color="#EAEAE8"/>
<stop offset="1" stop-color="white"/>
</linearGradient>
<linearGradient id="paint24_linear" x1="83.1286" y1="195.302" x2="397.203" y2="195.302" gradientUnits="userSpaceOnUse">
<stop stop-color="#D5D3D4"/>
<stop offset="0.2113" stop-color="#E1DEDF"/>
<stop offset="0.4329" stop-color="#E8E4E6"/>
<stop offset="0.734" stop-color="#E0DDDF"/>
<stop offset="1" stop-color="#D5D3D4"/>
</linearGradient>
<linearGradient id="paint25_linear" x1="86.2422" y1="193.778" x2="401.095" y2="188.536" gradientUnits="userSpaceOnUse">
<stop stop-color="#D7D5D6"/>
<stop offset="0.0216247" stop-color="#D9D7D8"/>
<stop offset="0.1456" stop-color="#E0DDDE"/>
<stop offset="0.4329" stop-color="#E8E4E6"/>
<stop offset="0.567" stop-color="#E6E2E4"/>
<stop offset="1" stop-color="#D5D3D4"/>
</linearGradient>
<linearGradient id="paint26_linear" x1="89.4336" y1="192.148" x2="404.898" y2="181.642" gradientUnits="userSpaceOnUse">
<stop stop-color="#D9D7D8"/>
<stop offset="0.0112691" stop-color="#DAD8D9"/>
<stop offset="0.1456" stop-color="#E1DEDF"/>
<stop offset="0.4329" stop-color="#E9E5E7"/>
<stop offset="0.567" stop-color="#E6E2E4"/>
<stop offset="1" stop-color="#D5D3D4"/>
</linearGradient>
<linearGradient id="paint27_linear" x1="92.6979" y1="190.412" x2="408.606" y2="174.624" gradientUnits="userSpaceOnUse">
<stop stop-color="#DBD9DA"/>
<stop offset="0.0112691" stop-color="#DCDADB"/>
<stop offset="0.1456" stop-color="#E3E0E1"/>
<stop offset="0.4329" stop-color="#E9E5E7"/>
<stop offset="0.567" stop-color="#E6E2E4"/>
<stop offset="1" stop-color="#D4D2D3"/>
</linearGradient>
<linearGradient id="paint28_linear" x1="96.03" y1="188.566" x2="412.213" y2="167.483" gradientUnits="userSpaceOnUse">
<stop stop-color="#DDDBDC"/>
<stop offset="0.1456" stop-color="#E4E2E3"/>
<stop offset="0.4329" stop-color="#E9E6E8"/>
<stop offset="0.567" stop-color="#E6E2E4"/>
<stop offset="1" stop-color="#D4D2D3"/>
</linearGradient>
<linearGradient id="paint29_linear" x1="99.4249" y1="186.609" x2="415.713" y2="160.224" gradientUnits="userSpaceOnUse">
<stop stop-color="#DFDDDE"/>
<stop offset="0.1456" stop-color="#E6E4E4"/>
<stop offset="0.4329" stop-color="#EAE6E8"/>
<stop offset="0.567" stop-color="#E6E2E4"/>
<stop offset="1" stop-color="#D4D2D3"/>
</linearGradient>
<linearGradient id="paint30_linear" x1="102.877" y1="184.539" x2="419.1" y2="152.852" gradientUnits="userSpaceOnUse">
<stop stop-color="#E1E0E0"/>
<stop offset="0.1456" stop-color="#E7E5E6"/>
<stop offset="0.4329" stop-color="#EAE7E8"/>
<stop offset="0.567" stop-color="#E7E3E5"/>
<stop offset="1" stop-color="#D4D2D3"/>
</linearGradient>
<linearGradient id="paint31_linear" x1="106.382" y1="182.354" x2="422.369" y2="145.369" gradientUnits="userSpaceOnUse">
<stop stop-color="#E3E2E2"/>
<stop offset="0.1456" stop-color="#E9E7E8"/>
<stop offset="0.4329" stop-color="#EAE7E9"/>
<stop offset="0.567" stop-color="#E7E3E5"/>
<stop offset="1" stop-color="#D4D1D3"/>
</linearGradient>
<linearGradient id="paint32_linear" x1="109.934" y1="180.054" x2="425.515" y2="137.78" gradientUnits="userSpaceOnUse">
<stop stop-color="#E5E4E4"/>
<stop offset="0.1456" stop-color="#EBE9E9"/>
<stop offset="0.4329" stop-color="#EBE7E9"/>
<stop offset="0.567" stop-color="#E7E3E5"/>
<stop offset="1" stop-color="#D3D1D2"/>
</linearGradient>
<linearGradient id="paint33_linear" x1="113.527" y1="177.637" x2="428.532" y2="130.09" gradientUnits="userSpaceOnUse">
<stop stop-color="#E7E6E6"/>
<stop offset="0.1456" stop-color="#ECEAEB"/>
<stop offset="0.4329" stop-color="#EBE8E9"/>
<stop offset="0.567" stop-color="#E7E3E5"/>
<stop offset="1" stop-color="#D3D1D2"/>
</linearGradient>
<linearGradient id="paint34_linear" x1="117.158" y1="175.102" x2="431.416" y2="122.304" gradientUnits="userSpaceOnUse">
<stop stop-color="#E9E8E8"/>
<stop offset="0.1456" stop-color="#EEECED"/>
<stop offset="0.4329" stop-color="#EBE8EA"/>
<stop offset="0.567" stop-color="#E7E3E5"/>
<stop offset="1" stop-color="#D3D1D2"/>
</linearGradient>
<linearGradient id="paint35_linear" x1="120.819" y1="172.449" x2="434.16" y2="114.427" gradientUnits="userSpaceOnUse">
<stop stop-color="#EBEAEB"/>
<stop offset="0.1456" stop-color="#EFEEEE"/>
<stop offset="0.4329" stop-color="#ECE9EA"/>
<stop offset="0.567" stop-color="#E7E3E5"/>
<stop offset="1" stop-color="#D3D0D2"/>
</linearGradient>
<linearGradient id="paint36_linear" x1="124.506" y1="169.677" x2="436.761" y2="106.463" gradientUnits="userSpaceOnUse">
<stop stop-color="#EDECED"/>
<stop offset="0.1456" stop-color="#F1F0F0"/>
<stop offset="0.4329" stop-color="#ECE9EB"/>
<stop offset="0.567" stop-color="#E7E3E5"/>
<stop offset="1" stop-color="#D3D0D2"/>
</linearGradient>
<linearGradient id="paint37_linear" x1="128.213" y1="166.787" x2="439.215" y2="98.419" gradientUnits="userSpaceOnUse">
<stop stop-color="#EFEEEF"/>
<stop offset="0.1456" stop-color="#F2F1F2"/>
<stop offset="0.4329" stop-color="#ECEAEB"/>
<stop offset="0.567" stop-color="#E7E3E5"/>
<stop offset="1" stop-color="#D3D0D2"/>
</linearGradient>
<linearGradient id="paint38_linear" x1="131.936" y1="163.778" x2="441.516" y2="90.2999" gradientUnits="userSpaceOnUse">
<stop stop-color="#F1F0F1"/>
<stop offset="0.1456" stop-color="#F4F3F3"/>
<stop offset="0.4329" stop-color="#EDEAEB"/>
<stop offset="0.567" stop-color="#E7E3E5"/>
<stop offset="1" stop-color="#D2D0D1"/>
</linearGradient>
<linearGradient id="paint39_linear" x1="135.669" y1="160.65" x2="443.662" y2="82.1118" gradientUnits="userSpaceOnUse">
<stop stop-color="#F3F2F3"/>
<stop offset="0.1456" stop-color="#F6F5F5"/>
<stop offset="0.4329" stop-color="#EDEAEC"/>
<stop offset="0.567" stop-color="#E7E3E5"/>
<stop offset="1" stop-color="#D2CFD1"/>
</linearGradient>
<linearGradient id="paint40_linear" x1="139.407" y1="157.405" x2="445.647" y2="73.8605" gradientUnits="userSpaceOnUse">
<stop stop-color="#F5F5F5"/>
<stop offset="0.1456" stop-color="#F7F6F7"/>
<stop offset="0.4329" stop-color="#EDEBEC"/>
<stop offset="0.567" stop-color="#E8E4E6"/>
<stop offset="1" stop-color="#D2CFD1"/>
</linearGradient>
<linearGradient id="paint41_linear" x1="143.144" y1="154.042" x2="447.47" y2="65.5525" gradientUnits="userSpaceOnUse">
<stop stop-color="#F7F7F7"/>
<stop offset="0.1456" stop-color="#F9F8F8"/>
<stop offset="0.4329" stop-color="#EEEBEC"/>
<stop offset="0.567" stop-color="#E8E4E6"/>
<stop offset="1" stop-color="#D2CFD1"/>
</linearGradient>
<linearGradient id="paint42_linear" x1="146.876" y1="150.563" x2="449.125" y2="57.1939" gradientUnits="userSpaceOnUse">
<stop stop-color="#F9F9F9"/>
<stop offset="0.1456" stop-color="#FAFAFA"/>
<stop offset="0.4329" stop-color="#EEECED"/>
<stop offset="0.5636" stop-color="#E8E4E6"/>
<stop offset="0.567" stop-color="#E8E4E6"/>
<stop offset="1" stop-color="#D2CFD1"/>
</linearGradient>
<linearGradient id="paint43_linear" x1="150.597" y1="146.969" x2="450.611" y2="48.7912" gradientUnits="userSpaceOnUse">
<stop stop-color="#FBFBFB"/>
<stop offset="0.1456" stop-color="#FCFCFC"/>
<stop offset="0.4329" stop-color="#EEECED"/>
<stop offset="0.5636" stop-color="#E8E4E6"/>
<stop offset="0.567" stop-color="#E8E4E6"/>
<stop offset="1" stop-color="#D1CED0"/>
</linearGradient>
<linearGradient id="paint44_linear" x1="154.303" y1="143.261" x2="451.924" y2="40.3513" gradientUnits="userSpaceOnUse">
<stop stop-color="#FDFDFD"/>
<stop offset="0.1456" stop-color="#FDFDFD"/>
<stop offset="0.4329" stop-color="#EFEDEE"/>
<stop offset="0.5533" stop-color="#E9E5E7"/>
<stop offset="0.567" stop-color="#E8E4E6"/>
<stop offset="1" stop-color="#D1CED0"/>
</linearGradient>
<linearGradient id="paint45_linear" x1="157.988" y1="139.441" x2="453.063" y2="31.8807" gradientUnits="userSpaceOnUse">
<stop offset="0.1456" stop-color="white"/>
<stop offset="0.567" stop-color="#E8E4E6"/>
<stop offset="1" stop-color="#D1CED0"/>
</linearGradient>
<linearGradient id="paint46_linear" x1="203.286" y1="116.991" x2="203.861" y2="104.967" gradientUnits="userSpaceOnUse">
<stop stop-color="#C0BFC0"/>
<stop offset="0.2351" stop-color="#D6D5D5"/>
<stop offset="0.4752" stop-color="#E5E5E3"/>
<stop offset="0.6668" stop-color="#EAEAE8"/>
<stop offset="1" stop-color="white"/>
</linearGradient>
<linearGradient id="paint47_linear" x1="217.245" y1="116.991" x2="217.82" y2="104.967" gradientUnits="userSpaceOnUse">
<stop stop-color="#C0BFC0"/>
<stop offset="0.2351" stop-color="#D6D5D5"/>
<stop offset="0.4752" stop-color="#E5E5E3"/>
<stop offset="0.6668" stop-color="#EAEAE8"/>
<stop offset="1" stop-color="white"/>
</linearGradient>
<linearGradient id="paint48_linear" x1="281.504" y1="88.351" x2="542.962" y2="262.35" gradientUnits="userSpaceOnUse">
<stop stop-color="#E8E4E6"/>
<stop offset="0.7625" stop-color="#DEDCDD"/>
</linearGradient>
<linearGradient id="paint49_linear" x1="274.783" y1="105.866" x2="545.594" y2="257.028" gradientUnits="userSpaceOnUse">
<stop stop-color="#E8E4E6"/>
<stop offset="0.1456" stop-color="#E6E2E4"/>
<stop offset="0.7625" stop-color="#DFDDDE"/>
<stop offset="1" stop-color="#E0DEDF"/>
</linearGradient>
<linearGradient id="paint50_linear" x1="271.786" y1="123.502" x2="548.92" y2="249.969" gradientUnits="userSpaceOnUse">
<stop stop-color="#E8E4E7"/>
<stop offset="0.1456" stop-color="#E6E3E5"/>
<stop offset="0.7625" stop-color="#E0DFE0"/>
<stop offset="1" stop-color="#E1DFE0"/>
</linearGradient>
<linearGradient id="paint51_linear" x1="272.648" y1="140.432" x2="552.631" y2="240.579" gradientUnits="userSpaceOnUse">
<stop stop-color="#E7E5E7"/>
<stop offset="0.1456" stop-color="#E6E3E5"/>
<stop offset="0.7625" stop-color="#E2E0E1"/>
<stop offset="1" stop-color="#E3E1E2"/>
</linearGradient>
<linearGradient id="paint52_linear" x1="277.306" y1="155.941" x2="556.204" y2="228.513" gradientUnits="userSpaceOnUse">
<stop stop-color="#E7E5E7"/>
<stop offset="0.1456" stop-color="#E5E3E6"/>
<stop offset="0.7625" stop-color="#E3E1E3"/>
<stop offset="1" stop-color="#E4E2E3"/>
</linearGradient>
<linearGradient id="paint53_linear" x1="285.572" y1="169.337" x2="558.918" y2="213.587" gradientUnits="userSpaceOnUse">
<stop stop-color="#E7E5E7"/>
<stop offset="0.1456" stop-color="#E5E4E6"/>
<stop offset="0.7625" stop-color="#E4E2E4"/>
<stop offset="1" stop-color="#E6E4E5"/>
</linearGradient>
<linearGradient id="paint54_linear" x1="297.008" y1="180.075" x2="559.861" y2="196.067" gradientUnits="userSpaceOnUse">
<stop stop-color="#E7E5E8"/>
<stop offset="0.1456" stop-color="#E5E4E6"/>
<stop offset="0.7625" stop-color="#E5E4E5"/>
<stop offset="1" stop-color="#E7E5E7"/>
</linearGradient>
<linearGradient id="paint55_linear" x1="311.025" y1="187.766" x2="558.125" y2="176.641" gradientUnits="userSpaceOnUse">
<stop stop-color="#E6E6E8"/>
<stop offset="0.1456" stop-color="#E5E4E7"/>
<stop offset="0.7625" stop-color="#E6E5E7"/>
<stop offset="1" stop-color="#E9E7E8"/>
</linearGradient>
<linearGradient id="paint56_linear" x1="326.938" y1="192.205" x2="553.119" y2="156.383" gradientUnits="userSpaceOnUse">
<stop stop-color="#E6E6E8"/>
<stop offset="0.1456" stop-color="#E5E5E7"/>
<stop offset="0.7625" stop-color="#E8E6E8"/>
<stop offset="1" stop-color="#EBE9EA"/>
</linearGradient>
<linearGradient id="paint57_linear" x1="343.916" y1="193.431" x2="544.598" y2="136.744" gradientUnits="userSpaceOnUse">
<stop stop-color="#E6E6E9"/>
<stop offset="0.1456" stop-color="#E5E5E7"/>
<stop offset="0.7625" stop-color="#E9E8E9"/>
<stop offset="1" stop-color="#ECEAEC"/>
</linearGradient>
<linearGradient id="paint58_linear" x1="361.069" y1="191.713" x2="532.999" y2="119.2" gradientUnits="userSpaceOnUse">
<stop stop-color="#E6E6E9"/>
<stop offset="0.1456" stop-color="#E5E5E8"/>
<stop offset="0.7625" stop-color="#EAE9EB"/>
<stop offset="1" stop-color="#EEECED"/>
</linearGradient>
<linearGradient id="paint59_linear" x1="377.426" y1="187.632" x2="519.458" y2="104.901" gradientUnits="userSpaceOnUse">
<stop stop-color="#E5E7E9"/>
<stop offset="0.1456" stop-color="#E4E6E8"/>
<stop offset="0.7625" stop-color="#EBEAEC"/>
<stop offset="1" stop-color="#EFEDEF"/>
</linearGradient>
<linearGradient id="paint60_linear" x1="392.18" y1="182.13" x2="505.815" y2="94.1026" gradientUnits="userSpaceOnUse">
<stop stop-color="#E5E7E9"/>
<stop offset="0.1456" stop-color="#E4E6E9"/>
<stop offset="0.7625" stop-color="#ECEBEE"/>
<stop offset="1" stop-color="#F1EFF0"/>
</linearGradient>
<linearGradient id="paint61_linear" x1="404.546" y1="176.527" x2="493.912" y2="85.9238" gradientUnits="userSpaceOnUse">
<stop stop-color="#E5E7EA"/>
<stop offset="0.1456" stop-color="#E4E6E9"/>
<stop offset="0.7625" stop-color="#EDEDEF"/>
<stop offset="1" stop-color="#F2F0F2"/>
</linearGradient>
<linearGradient id="paint62_linear" x1="414.207" y1="172.36" x2="484.974" y2="78.4167" gradientUnits="userSpaceOnUse">
<stop stop-color="#E5E7EA"/>
<stop offset="0.1456" stop-color="#E4E7E9"/>
<stop offset="0.7625" stop-color="#EFEEF0"/>
<stop offset="1" stop-color="#F4F2F4"/>
</linearGradient>
<linearGradient id="paint63_linear" x1="421.535" y1="170.809" x2="478.873" y2="69.3878" gradientUnits="userSpaceOnUse">
<stop stop-color="#E4E8EA"/>
<stop offset="0.1456" stop-color="#E4E7EA"/>
<stop offset="0.7625" stop-color="#F0EFF2"/>
<stop offset="1" stop-color="#F6F4F5"/>
</linearGradient>
<linearGradient id="paint64_linear" x1="427.807" y1="172.007" x2="474.22" y2="57.9743" gradientUnits="userSpaceOnUse">
<stop stop-color="#E4E8EB"/>
<stop offset="0.1456" stop-color="#E4E7EA"/>
<stop offset="0.7625" stop-color="#F1F1F3"/>
<stop offset="1" stop-color="#F7F5F7"/>
</linearGradient>
<linearGradient id="paint65_linear" x1="434.386" y1="175.041" x2="469.359" y2="44.8578" gradientUnits="userSpaceOnUse">
<stop stop-color="#E4E8EB"/>
<stop offset="0.1456" stop-color="#E4E8EA"/>
<stop offset="0.7625" stop-color="#F2F2F4"/>
<stop offset="1" stop-color="#F9F7F9"/>
</linearGradient>
<linearGradient id="paint66_linear" x1="442.216" y1="178.694" x2="463.387" y2="31.3157" gradientUnits="userSpaceOnUse">
<stop stop-color="#E4E8EB"/>
<stop offset="0.1456" stop-color="#E3E8EB"/>
<stop offset="0.7625" stop-color="#F3F3F6"/>
<stop offset="1" stop-color="#FAF8FA"/>
</linearGradient>
<linearGradient id="paint67_linear" x1="451.706" y1="181.803" x2="456.129" y2="18.4353" gradientUnits="userSpaceOnUse">
<stop stop-color="#E3E9EB"/>
<stop offset="0.1456" stop-color="#E3E8EB"/>
<stop offset="0.7625" stop-color="#F5F4F7"/>
<stop offset="1" stop-color="#FCFAFC"/>
</linearGradient>
<linearGradient id="paint68_linear" x1="462.878" y1="183.566" x2="447.865" y2="6.93293" gradientUnits="userSpaceOnUse">
<stop stop-color="#E3E9EC"/>
<stop offset="0.1456" stop-color="#E3E9EC"/>
<stop offset="0.7625" stop-color="#F6F6F9"/>
<stop offset="1" stop-color="#FDFBFD"/>
</linearGradient>
<linearGradient id="paint69_linear" x1="475.371" y1="183.397" x2="438.862" y2="-2.83114" gradientUnits="userSpaceOnUse">
<stop offset="0.1456" stop-color="#E3E9EC"/>
<stop offset="1" stop-color="#FFFDFF"/>
</linearGradient>
<linearGradient id="paint70_linear" x1="475.371" y1="183.397" x2="438.862" y2="-2.83114" gradientUnits="userSpaceOnUse">
<stop offset="0.6207" stop-color="#F1F2F4"/>
<stop offset="0.9962" stop-color="white"/>
</linearGradient>
<linearGradient id="paint71_linear" x1="458.007" y1="108.71" x2="468.763" y2="101.047" gradientUnits="userSpaceOnUse">
<stop stop-color="white"/>
<stop offset="0.3715" stop-color="#DDDDDB"/>
<stop offset="0.6211" stop-color="#DBDBD9"/>
<stop offset="0.7338" stop-color="#D4D4D2"/>
<stop offset="0.8191" stop-color="#C7C7C6"/>
<stop offset="0.8905" stop-color="#B5B5B4"/>
<stop offset="0.9527" stop-color="#9E9E9E"/>
<stop offset="1" stop-color="#878687"/>
</linearGradient>
<clipPath id="clip0">
<rect width="913.393" height="300" fill="white"/>
</clipPath>
</defs>
</svg>
