<svg width="32" height="32" viewBox="0 0 32 32" fill="none" xmlns="http://www.w3.org/2000/svg">
<path d="M11.6702 24.9815C9.73214 24.9815 8.16101 26.5529 8.16101 28.491C8.16131 30.4291 9.73244 31.9999 11.6705 31.9999C13.6086 31.9999 15.1798 30.4288 15.1798 28.4907C15.1774 26.5535 13.6074 24.9836 11.6702 24.9815ZM11.6702 30.4761C10.5738 30.4761 9.68482 29.5871 9.68482 28.4904C9.68512 27.394 10.5738 26.5053 11.6705 26.5053C12.767 26.5053 13.656 27.3943 13.656 28.4907C13.6545 29.5868 12.7664 30.4749 11.6702 30.4761Z" fill="#404040"/>
<path d="M25.4819 24.9815C23.5438 24.9815 21.9727 26.5526 21.9727 28.4907C21.9727 30.4288 23.5438 31.9999 25.4819 31.9999C27.42 31.9999 28.9911 30.4288 28.9911 28.4907C28.9887 26.5535 27.4191 24.9839 25.4819 24.9815ZM25.4819 30.4761C24.3852 30.4761 23.4965 29.5871 23.4965 28.4907C23.4965 27.394 24.3855 26.5053 25.4819 26.5053C26.5783 26.5053 27.4673 27.3943 27.4673 28.4907C27.4661 29.5868 26.5777 30.4749 25.4819 30.4761Z" fill="#404040"/>
<path d="M31.1822 6.22321H7.29145L6.7733 3.17203C6.46646 1.33811 4.87717 -0.00385306 3.01795 1.5974e-05H0.838197C0.417364 1.5974e-05 0.0762939 0.341086 0.0762939 0.761919C0.0762939 1.18275 0.417364 1.52382 0.838197 1.52382H3.01766C4.13343 1.52144 5.087 2.3268 5.27122 3.42709L8.02985 19.6794C8.33699 21.5137 9.92657 22.8559 11.7861 22.8514H28.0277C28.4482 22.8514 28.7896 22.5104 28.7896 22.0895C28.7896 21.6687 28.4482 21.3276 28.0277 21.3276H11.7858C10.6703 21.3303 9.71675 20.525 9.53252 19.4247L9.25514 17.7904H25.1807C27.1685 17.7949 28.9301 16.5101 29.5334 14.616L31.9075 7.21785C31.9819 6.98601 31.9411 6.73274 31.7976 6.53601C31.6542 6.33928 31.4256 6.22321 31.1822 6.22321ZM28.0825 14.1506C27.6801 15.4134 26.5057 16.2696 25.1804 16.2666H8.99651L7.55008 7.74702H30.1372L28.0825 14.1506Z" fill="#404040"/>
</svg>
